<svg width="234" height="42" viewBox="0 0 234 42" fill="none" xmlns="http://www.w3.org/2000/svg">
  <path fill-rule="evenodd" clip-rule="evenodd" d="M105.769 22.627H126.44V19.7637H105.769V22.627Z" fill="#8A8B8A"/>
  <path fill-rule="evenodd" clip-rule="evenodd" d="M0.949951 0.753906V41.3849H3.9186V7.72801L21.3867 41.3849H24.8175L3.61665 0.753906H0.949951Z" fill="white"/>
  <path fill-rule="evenodd" clip-rule="evenodd" d="M42.2856 41.3849H45.2542V0.753906H42.2856V41.3849Z" fill="#8A8B8A"/>
  <path fill-rule="evenodd" clip-rule="evenodd" d="M83.9231 0.753906L62.7218 41.3849H66.1526L83.6212 7.72801V41.3849H86.5898V0.753906H83.9231Z" fill="white"/>
  <path fill-rule="evenodd" clip-rule="evenodd" d="M124.956 41.3849H127.924V0.753906H124.956V41.3849Z" fill="#8A8B8A"/>
  <path fill-rule="evenodd" clip-rule="evenodd" d="M170.476 0.75L167.355 5.43855L164.221 0.75H163.513L167.032 6.0474V9.0813H167.666V6.0474L171.198 0.75H170.476Z" fill="white"/>
  <path
    fill-rule="evenodd"
    clip-rule="evenodd"
    d="M169.942 23.7402C170.642 23.027 170.994 22.1436 170.994 21.0915C170.994 20.0466 170.642 19.1655 169.942 18.4487C169.241 17.7318 168.381 17.3736 167.362 17.3736C166.334 17.3736 165.47 17.7318 164.769 18.4487C164.069 19.1655 163.717 20.0466 163.717 21.0915C163.717 22.1436 164.069 23.027 164.769 23.7402C165.47 24.4526 166.334 24.8094 167.362 24.8094C168.381 24.8094 169.241 24.4526 169.942 23.7402ZM170.383 18.0383C171.205 18.8717 171.614 19.8887 171.614 21.0915C171.614 22.3016 171.205 23.3208 170.383 24.1497C169.563 24.9795 168.556 25.394 167.362 25.394C166.16 25.394 165.148 24.9795 164.328 24.1497C163.507 23.3208 163.097 22.3016 163.097 21.0915C163.097 19.8887 163.509 18.8717 164.334 18.0383C165.159 17.2044 166.169 16.7891 167.362 16.7891C168.556 16.7891 169.563 17.2044 170.383 18.0383Z"
    fill="white"/>
  <path
    fill-rule="evenodd"
    clip-rule="evenodd"
    d="M182.845 24.6842C184.114 24.6842 185.101 24.3426 185.805 23.6586C186.51 22.9746 186.862 22.1192 186.862 21.0914C186.862 20.0631 186.51 19.2068 185.805 18.5228C185.101 17.8388 184.114 17.4972 182.845 17.4972H180.881V24.6842H182.845ZM182.859 16.9248C184.31 16.9248 185.443 17.3208 186.26 18.1128C187.076 18.9039 187.485 19.8966 187.485 21.0914C187.485 22.2843 187.076 23.277 186.26 24.0695C185.443 24.8606 184.31 25.2561 182.859 25.2561H180.248V16.9248H182.859Z"
    fill="white"/>
  <path fill-rule="evenodd" clip-rule="evenodd" d="M197.849 20.7926H202.811V21.3528H197.849V24.6842H203.184V25.2566H197.216V16.9248H203.184V17.4972H197.849V20.7926Z" fill="white"/>
  <path
    fill-rule="evenodd"
    clip-rule="evenodd"
    d="M216.075 20.8677C216.664 20.8677 217.138 20.712 217.499 20.4011C217.861 20.0901 218.04 19.682 218.04 19.1762C218.04 18.6695 217.861 18.2636 217.499 17.9576C217.138 17.6502 216.664 17.4972 216.075 17.4972H212.916V20.8677H216.075ZM218.177 25.2561L214.745 21.4266H212.916V25.2561H212.282V16.9248H216.075C216.854 16.9248 217.48 17.13 217.953 17.5409C218.425 17.9517 218.662 18.4958 218.662 19.1762C218.662 19.8552 218.425 20.4011 217.953 20.8106C217.48 21.2214 216.854 21.4266 216.075 21.4266H215.541L218.998 25.2561H218.177Z"
    fill="white"/>
  <path fill-rule="evenodd" clip-rule="evenodd" d="M233.866 25.2566H233.307L227.449 18.0075V25.2566H226.817V16.9248H227.375L233.245 24.2252V16.9248H233.866V25.2566Z" fill="white"/>
  <path fill-rule="evenodd" clip-rule="evenodd" d="M155.953 41.4314H155.332V37.5141H147.745V41.4314H147.111V33.0996H147.745V36.9431H155.332V33.0996H155.953V41.4314Z" fill="white"/>
  <mask id="mask0" mask-type="alpha" maskUnits="userSpaceOnUse" x="163" y="32" width="9" height="10">
    <path d="M163.097 32.9639H171.614V41.569H163.097V32.9639Z" fill="white"/>
  </mask>
  <g mask="url(#mask0)">
    <path
      fill-rule="evenodd"
      clip-rule="evenodd"
      d="M169.942 39.9155C170.642 39.2022 170.994 38.3189 170.994 37.2663C170.994 36.2219 170.642 35.3408 169.942 34.6239C169.241 33.9066 168.381 33.5484 167.362 33.5484C166.334 33.5484 165.47 33.9066 164.769 34.6239C164.069 35.3408 163.717 36.2219 163.717 37.2663C163.717 38.3189 164.069 39.2022 164.769 39.9155C165.47 40.6274 166.334 40.9847 167.362 40.9847C168.381 40.9847 169.241 40.6274 169.942 39.9155ZM170.383 34.2131C171.205 35.0465 171.614 36.0635 171.614 37.2663C171.614 38.4768 171.205 39.4961 170.383 40.325C169.563 41.1548 168.556 41.5692 167.362 41.5692C166.16 41.5692 165.148 41.1548 164.328 40.325C163.507 39.4961 163.097 38.4768 163.097 37.2663C163.097 36.0635 163.509 35.0465 164.334 34.2131C165.159 33.3797 166.169 32.9639 167.362 32.9639C168.556 32.9639 169.563 33.3797 170.383 34.2131Z"
      fill="white"/>
  </g>
  <path fill-rule="evenodd" clip-rule="evenodd" d="M188.287 41.4314H187.677V34.5297L184.096 41.4314H183.648L180.054 34.5297V41.4314H179.446V33.0996H180.005L183.872 40.5116L187.739 33.0996H188.287V41.4314Z" fill="white"/>
  <path fill-rule="evenodd" clip-rule="evenodd" d="M197.799 36.9669H202.762V37.5272H197.799V40.8585H203.135V41.4309H197.165V33.0996H203.135V33.6716H197.799V36.9669Z" fill="white"/>
  <mask id="mask1" mask-type="alpha" maskUnits="userSpaceOnUse" x="0" y="0" width="234" height="42">
    <path d="M0.949951 41.5686H233.866V0.75H0.949951V41.5686Z" fill="white"/>
  </mask>
  <g mask="url(#mask1)">
    <path fill-rule="evenodd" clip-rule="evenodd" d="M197.165 33.6716H203.135V33.0996H197.165V33.6716Z" fill="white"/>
    <path fill-rule="evenodd" clip-rule="evenodd" d="M197.165 41.3771H203.135V40.8047H197.165V41.3771Z" fill="white"/>
    <path fill-rule="evenodd" clip-rule="evenodd" d="M155.953 9.08175H155.344V2.18055L151.762 9.08175H151.315L147.721 2.18055V9.08175H147.111V0.75H147.671L151.538 8.16195L155.406 0.75H155.953V9.08175Z" fill="white"/>
    <path fill-rule="evenodd" clip-rule="evenodd" d="M155.953 25.2575H155.344V18.3563L151.762 25.2575H151.315L147.721 18.3563V25.2575H147.111V16.9258H147.671L151.538 24.3377L155.406 16.9258H155.953V25.2575Z" fill="white"/>
  </g>
</svg>
