<svg height="100" width="100" fill="#272726" xmlns="http://www.w3.org/2000/svg" viewBox="0 0 500 500"><path d="M134.9 212L250 76l115.1 136z"/><path d="M142 218.7c13-15.3 25.9-30.6 38.9-45.9 20.7-24.4 41.3-48.8 62-73.2 4.8-5.6 9.5-11.2 14.3-16.9h-14.1c13 15.3 25.9 30.6 38.9 45.9 20.7 24.4 41.3 48.8 62 73.2 4.8 5.6 9.5 11.2 14.3 16.9 2.4-5.7 4.7-11.4 7.1-17.1H135.2c-12.9 0-12.9 20 0 20h230.2c9.2 0 12.5-10.7 7.1-17.1-13-15.3-25.9-30.6-38.9-45.9-20.7-24.4-41.3-48.8-62-73.2-4.8-5.6-9.5-11.2-14.3-16.9-3.3-3.9-10.9-3.9-14.1 0-13 15.3-25.9 30.6-38.9 45.9-20.7 24.4-41.3 48.8-62 73.2-4.8 5.6-9.5 11.2-14.3 16.9-3.5 4.1-4 10.1 0 14.1 3.4 3.7 10.5 4.3 14 .1zm-7.1 69.3L250 424l115.1-136z"/><path d="M127.9 295.4c13 15.3 25.9 30.6 38.9 45.9 20.7 24.4 41.3 48.8 62 73.2 4.8 5.6 9.5 11.2 14.3 16.9 3.3 3.9 10.9 3.9 14.1 0 13-15.3 25.9-30.6 38.9-45.9 20.7-24.4 41.3-48.8 62-73.2 4.8-5.6 9.5-11.2 14.3-16.9 5.4-6.4 2.1-17.1-7.1-17.1H135.1c-12.9 0-12.9 20 0 20h230.2c-2.4-5.7-4.7-11.4-7.1-17.1-13 15.3-25.9 30.6-38.9 45.9-20.7 24.4-41.3 48.8-62 73.2-4.8 5.6-9.5 11.2-14.3 16.9h14.1c-13-15.3-25.9-30.6-38.9-45.9-20.7-24.4-41.3-48.8-62-73.2-4.8-5.6-9.5-11.2-14.3-16.9-3.5-4.1-10.5-3.6-14.1 0-4 4.1-3.4 10.1.1 14.2z"/></svg>