<svg xmlns="http://www.w3.org/2000/svg" width="80" height="56" viewBox="0 0 80 56">
    <g fill="none" fill-rule="evenodd">
        <path fill="#FA6484" d="M79.201 12.08s-.781-5.486-3.18-7.902C72.979 1.007 69.569.991 68.005.805 56.81 0 40.017 0 40.017 0h-.034S23.19 0 11.995.805c-1.564.186-4.973.202-8.016 3.373C1.581 6.594.8 12.081.8 12.081S0 18.524 0 24.967v6.04c0 6.444.8 12.887.8 12.887s.78 5.487 3.18 7.903c3.042 3.171 7.04 3.07 8.82 3.403 6.4.611 27.2.8 27.2.8s16.81-.025 28.005-.83c1.564-.186 4.974-.202 8.016-3.373 2.399-2.416 3.18-7.903 3.18-7.903S80 37.45 80 31.008v-6.04c0-6.444-.799-12.887-.799-12.887z"/>
        <path fill="#FFF" d="M32.004 38.913L32 17l21.818 10.995z"/>
    </g>
</svg>
