<?xml version="1.0" encoding="UTF-8"?>
<svg width="396px" height="608px" viewBox="0 0 396 608" version="1.1" xmlns="http://www.w3.org/2000/svg" xmlns:xlink="http://www.w3.org/1999/xlink">
    <!-- Generator: Sketch 63.1 (92452) - https://sketch.com -->
    <title>Group 27</title>
    <desc>Created with Sketch.</desc>
    <defs>
        <linearGradient x1="50%" y1="0%" x2="50%" y2="100%" id="linearGradient-1">
            <stop stop-color="#ABB2C4" stop-opacity="0.23864923" offset="0%"></stop>
            <stop stop-color="#737A91" stop-opacity="0.331634964" offset="100%"></stop>
        </linearGradient>
        <filter x="-15.5%" y="-8.3%" width="131.0%" height="116.7%" filterUnits="objectBoundingBox" id="filter-2">
            <feGaussianBlur stdDeviation="15" in="SourceGraphic"></feGaussianBlur>
        </filter>
        <linearGradient x1="0%" y1="38.8001865%" x2="100%" y2="61.1998135%" id="linearGradient-3">
            <stop stop-color="#FFFFFF" offset="0%"></stop>
            <stop stop-color="#FEFEFE" offset="100%"></stop>
        </linearGradient>
        <path d="M22.1470588,157.646914 C23.3068568,157.646914 24.2470588,158.587116 24.2470588,159.746914 L24.2470588,192.9 C24.2470588,194.059798 23.3068568,195 22.1470588,195 L17.1,195 C15.940202,195 15,194.059798 15,192.9 L15,159.746914 C15,158.587116 15.940202,157.646914 17.1,157.646914 L22.1470588,157.646914 Z M274.9,109.883951 C276.059798,109.883951 277,110.824153 277,111.983951 L277,155.546914 C277,156.706712 276.059798,157.646914 274.9,157.646914 L269.852941,157.646914 C268.693143,157.646914 267.752941,156.706712 267.752941,155.546914 L267.752941,111.983951 C267.752941,110.824153 268.693143,109.883951 269.852941,109.883951 L274.9,109.883951 Z M22.1470588,109.883951 C23.3068568,109.883951 24.2470588,110.824153 24.2470588,111.983951 L24.2470588,145.137037 C24.2470588,146.296835 23.3068568,147.237037 22.1470588,147.237037 L17.1,147.237037 C15.940202,147.237037 15,146.296835 15,145.137037 L15,111.983951 C15,110.824153 15.940202,109.883951 17.1,109.883951 L22.1470588,109.883951 Z M22.1470588,71 C23.3068568,71 24.2470588,71.940202 24.2470588,73.1 L24.2470588,89.7197531 C24.2470588,90.8795511 23.3068568,91.8197531 22.1470588,91.8197531 L17.1,91.8197531 C15.940202,91.8197531 15,90.8795511 15,89.7197531 L15,73.1 C15,71.940202 15.940202,71 17.1,71 L22.1470588,71 Z" id="path-4"></path>
        <filter x="-24.0%" y="-37.8%" width="148.0%" height="201.5%" filterUnits="objectBoundingBox" id="filter-5">
            <feMorphology radius="0.9" operator="dilate" in="SourceAlpha" result="shadowSpreadOuter1"></feMorphology>
            <feOffset dx="0" dy="16" in="shadowSpreadOuter1" result="shadowOffsetOuter1"></feOffset>
            <feGaussianBlur stdDeviation="18" in="shadowOffsetOuter1" result="shadowBlurOuter1"></feGaussianBlur>
            <feComposite in="shadowBlurOuter1" in2="SourceAlpha" operator="out" result="shadowBlurOuter1"></feComposite>
            <feColorMatrix values="0 0 0 0 0   0 0 0 0 0   0 0 0 0 0  0 0 0 0.132840806 0" type="matrix" in="shadowBlurOuter1"></feColorMatrix>
        </filter>
        <rect id="path-6" x="0" y="0" width="231" height="499" rx="25.5"></rect>
        <linearGradient x1="38.2148162%" y1="0%" x2="61.7851838%" y2="100%" id="linearGradient-8">
            <stop stop-color="#FFFFFF" offset="0%"></stop>
            <stop stop-color="#FEFEFE" offset="100%"></stop>
        </linearGradient>
        <ellipse id="path-9" cx="2.78571429" cy="3" rx="2.78571429" ry="3"></ellipse>
        <filter x="-35.9%" y="-33.3%" width="171.8%" height="166.7%" filterUnits="objectBoundingBox" id="filter-10">
            <feGaussianBlur stdDeviation="1" in="SourceAlpha" result="shadowBlurInner1"></feGaussianBlur>
            <feOffset dx="-1" dy="-1" in="shadowBlurInner1" result="shadowOffsetInner1"></feOffset>
            <feComposite in="shadowOffsetInner1" in2="SourceAlpha" operator="arithmetic" k2="-1" k3="1" result="shadowInnerInner1"></feComposite>
            <feColorMatrix values="0 0 0 0 0   0 0 0 0 0   0 0 0 0 0  0 0 0 0.344061368 0" type="matrix" in="shadowInnerInner1"></feColorMatrix>
        </filter>
        <rect id="path-11" x="0" y="1.33333333" width="30.952381" height="3.33333333" rx="1.66666667"></rect>
        <filter x="-4.8%" y="-45.0%" width="109.7%" height="190.0%" filterUnits="objectBoundingBox" id="filter-12">
            <feGaussianBlur stdDeviation="0.5" in="SourceAlpha" result="shadowBlurInner1"></feGaussianBlur>
            <feOffset dx="1" dy="1" in="shadowBlurInner1" result="shadowOffsetInner1"></feOffset>
            <feComposite in="shadowOffsetInner1" in2="SourceAlpha" operator="arithmetic" k2="-1" k3="1" result="shadowInnerInner1"></feComposite>
            <feColorMatrix values="0 0 0 0 0   0 0 0 0 0   0 0 0 0 0  0 0 0 0.344061368 0" type="matrix" in="shadowInnerInner1"></feColorMatrix>
        </filter>
        <rect id="path-13" x="0" y="0" width="350" height="80" rx="10"></rect>
        <filter x="-8.6%" y="-37.5%" width="117.1%" height="175.0%" filterUnits="objectBoundingBox" id="filter-14">
            <feOffset dx="0" dy="0" in="SourceAlpha" result="shadowOffsetOuter1"></feOffset>
            <feGaussianBlur stdDeviation="10" in="shadowOffsetOuter1" result="shadowBlurOuter1"></feGaussianBlur>
            <feComposite in="shadowBlurOuter1" in2="SourceAlpha" operator="out" result="shadowBlurOuter1"></feComposite>
            <feColorMatrix values="0 0 0 0 0.329411765   0 0 0 0 0.403921569   0 0 0 0 0.490196078  0 0 0 0.0563009511 0" type="matrix" in="shadowBlurOuter1"></feColorMatrix>
        </filter>
        <rect id="path-15" x="0" y="0" width="350" height="80" rx="10"></rect>
        <filter x="-8.6%" y="-37.5%" width="117.1%" height="175.0%" filterUnits="objectBoundingBox" id="filter-16">
            <feOffset dx="0" dy="0" in="SourceAlpha" result="shadowOffsetOuter1"></feOffset>
            <feGaussianBlur stdDeviation="10" in="shadowOffsetOuter1" result="shadowBlurOuter1"></feGaussianBlur>
            <feComposite in="shadowBlurOuter1" in2="SourceAlpha" operator="out" result="shadowBlurOuter1"></feComposite>
            <feColorMatrix values="0 0 0 0 0.329411765   0 0 0 0 0.403921569   0 0 0 0 0.490196078  0 0 0 0.0563009511 0" type="matrix" in="shadowBlurOuter1"></feColorMatrix>
        </filter>
        <rect id="path-17" x="0" y="0" width="350" height="80" rx="10"></rect>
        <filter x="-8.6%" y="-37.5%" width="117.1%" height="175.0%" filterUnits="objectBoundingBox" id="filter-18">
            <feOffset dx="0" dy="0" in="SourceAlpha" result="shadowOffsetOuter1"></feOffset>
            <feGaussianBlur stdDeviation="10" in="shadowOffsetOuter1" result="shadowBlurOuter1"></feGaussianBlur>
            <feComposite in="shadowBlurOuter1" in2="SourceAlpha" operator="out" result="shadowBlurOuter1"></feComposite>
            <feColorMatrix values="0 0 0 0 0.329411765   0 0 0 0 0.403921569   0 0 0 0 0.490196078  0 0 0 0.0563009511 0" type="matrix" in="shadowBlurOuter1"></feColorMatrix>
        </filter>
        <rect id="path-19" x="0" y="0" width="350" height="80" rx="10"></rect>
        <filter x="-8.6%" y="-37.5%" width="117.1%" height="175.0%" filterUnits="objectBoundingBox" id="filter-20">
            <feOffset dx="0" dy="0" in="SourceAlpha" result="shadowOffsetOuter1"></feOffset>
            <feGaussianBlur stdDeviation="10" in="shadowOffsetOuter1" result="shadowBlurOuter1"></feGaussianBlur>
            <feComposite in="shadowBlurOuter1" in2="SourceAlpha" operator="out" result="shadowBlurOuter1"></feComposite>
            <feColorMatrix values="0 0 0 0 0.329411765   0 0 0 0 0.403921569   0 0 0 0 0.490196078  0 0 0 0.0563009511 0" type="matrix" in="shadowBlurOuter1"></feColorMatrix>
        </filter>
    </defs>
    <g id="Page-1" stroke="none" stroke-width="1" fill="none" fill-rule="evenodd">
        <g id="Simulateur-de-faisabilité-(non-rempli)" transform="translate(-679.000000, -2020.000000)">
            <g id="Group-27" transform="translate(669.000000, 2054.000000)">
                <g id="Group-26">
                    <g id="iPhone-X" transform="translate(66.000000, 0.000000)">
                        <rect id="shadow" fill="url(#linearGradient-1)" opacity="0.570595562" filter="url(#filter-2)" x="0" y="0" width="290" height="540" rx="30"></rect>
                        <g id="Buttons">
                            <use fill="black" fill-opacity="1" filter="url(#filter-5)" xlink:href="#path-4"></use>
                            <path stroke-opacity="0.04" stroke="#000000" stroke-width="0.9" d="M22.1470588,157.196914 L17.1,157.196914 C16.3958369,157.196914 15.7583369,157.482332 15.2968777,157.943791 C14.8354185,158.405251 14.55,159.042751 14.55,159.746914 L14.55,192.9 C14.55,193.604163 14.8354185,194.241663 15.2968777,194.703122 C15.7583369,195.164582 16.3958369,195.45 17.1,195.45 L22.1470588,195.45 C22.8512219,195.45 23.4887219,195.164582 23.9501811,194.703122 C24.4116404,194.241663 24.6970588,193.604163 24.6970588,192.9 L24.6970588,159.746914 C24.6970588,159.042751 24.4116404,158.405251 23.9501811,157.943791 C23.4887219,157.482332 22.8512219,157.196914 22.1470588,157.196914 Z M274.9,109.433951 L269.852941,109.433951 C269.148778,109.433951 268.511278,109.719369 268.049819,110.180828 C267.58836,110.642288 267.302941,111.279788 267.302941,111.983951 L267.302941,155.546914 C267.302941,156.251077 267.58836,156.888577 268.049819,157.350036 C268.511278,157.811495 269.148778,158.096914 269.852941,158.096914 L274.9,158.096914 C275.604163,158.096914 276.241663,157.811495 276.703122,157.350036 C277.164582,156.888577 277.45,156.251077 277.45,155.546914 L277.45,111.983951 C277.45,111.279788 277.164582,110.642288 276.703122,110.180828 C276.241663,109.719369 275.604163,109.433951 274.9,109.433951 Z M22.1470588,109.433951 L17.1,109.433951 C16.3958369,109.433951 15.7583369,109.719369 15.2968777,110.180828 C14.8354185,110.642288 14.55,111.279788 14.55,111.983951 L14.55,145.137037 C14.55,145.8412 14.8354185,146.4787 15.2968777,146.940159 C15.7583369,147.401619 16.3958369,147.687037 17.1,147.687037 L22.1470588,147.687037 C22.8512219,147.687037 23.4887219,147.401619 23.9501811,146.940159 C24.4116404,146.4787 24.6970588,145.8412 24.6970588,145.137037 L24.6970588,111.983951 C24.6970588,111.279788 24.4116404,110.642288 23.9501811,110.180828 C23.4887219,109.719369 22.8512219,109.433951 22.1470588,109.433951 Z M22.1470588,70.55 L17.1,70.55 C16.3958369,70.55 15.7583369,70.8354185 15.2968777,71.2968777 C14.8354185,71.7583369 14.55,72.3958369 14.55,73.1 L14.55,89.7197531 C14.55,90.4239161 14.8354185,91.0614161 15.2968777,91.5228754 C15.7583369,91.9843346 16.3958369,92.2697531 17.1,92.2697531 L22.1470588,92.2697531 C22.8512219,92.2697531 23.4887219,91.9843346 23.9501811,91.5228754 C24.4116404,91.0614161 24.6970588,90.4239161 24.6970588,89.7197531 L24.6970588,73.1 C24.6970588,72.3958369 24.4116404,71.7583369 23.9501811,71.2968777 C23.4887219,70.8354185 22.8512219,70.55 22.1470588,70.55 Z" fill="url(#linearGradient-3)" fill-rule="evenodd"></path>
                        </g>
                        <g id="iPhoneX_Wallpaper" transform="translate(31.000000, 11.000000)">
                            <mask id="mask-7" fill="white">
                                <use xlink:href="#path-6"></use>
                            </mask>
                            <use id="mask" stroke="#979797" stroke-width="0.5" fill="#F5F6FA" fill-rule="evenodd" xlink:href="#path-6"></use>
                            <ellipse id="Oval" fill="#BC87FB" fill-rule="evenodd" mask="url(#mask-7)" cx="0" cy="108.464901" rx="13.552" ry="13.5197044"></ellipse>
                            <ellipse id="Oval-Copy-3" fill="#FFCD00" fill-rule="evenodd" mask="url(#mask-7)" cx="153.076" cy="142.878695" rx="2.772" ry="2.76539409"></ellipse>
                            <ellipse id="Oval-Copy" stroke="#F58FDA" stroke-width="0.6" mask="url(#mask-7)" cx="196.196" cy="32.262931" rx="6.16" ry="6.1453202"></ellipse>
                            <ellipse id="Oval-Copy-7" fill="#F58BDA" fill-rule="evenodd" mask="url(#mask-7)" cx="45.584" cy="39.9445813" rx="3.08" ry="3.0726601"></ellipse>
                            <ellipse id="Oval-Copy-6" stroke="#FF9655" stroke-width="0.6" mask="url(#mask-7)" cx="55.132" cy="201.566502" rx="2.78" ry="2.7726601"></ellipse>
                            <ellipse id="Oval-Copy-2" fill="#72EBCA" fill-rule="evenodd" mask="url(#mask-7)" cx="211.596" cy="363.802956" rx="3.08" ry="3.0726601"></ellipse>
                            <path d="M190.039832,438.799725 L181.283432,456.306286 L198.760098,456.288219 L190.039832,438.799725 Z" id="Triangle" stroke="#8BD9F8" stroke-width="0.6" mask="url(#mask-7)" transform="translate(190.021179, 447.367526) rotate(-300.000000) translate(-190.021179, -447.367526) "></path>
                            <path d="M111.80105,300.85539 L109.206353,306.042935 L114.385039,306.037581 L111.80105,300.85539 Z" id="Triangle-Copy-2" stroke="#FFCD00" stroke-width="0.6" mask="url(#mask-7)" transform="translate(111.795109, 303.263683) rotate(-300.000000) translate(-111.795109, -303.263683) "></path>
                            <path d="M31.4568106,398.617175 L28.8720734,403.795922 L34.0539113,403.802104 L31.4568106,398.617175 Z" id="Triangle-Copy" stroke="#8BD9F8" stroke-width="0.6" mask="url(#mask-7)" transform="translate(31.463670, 401.024519) rotate(-45.000000) translate(-31.463670, -401.024519) "></path>
                            <ellipse id="Oval" stroke="#F5AFD7" stroke-width="0.6" mask="url(#mask-7)" cx="180.488" cy="272.852217" rx="2.78" ry="2.7726601"></ellipse>
                        </g>
                        <path d="M234.135471,1.25093419 C247.271493,1.29264509 252.11567,2.73004787 257.006385,5.34563066 C262.027908,8.0311708 265.968829,11.9720918 268.654369,16.9936153 C271.308991,21.9573256 272.75,26.873099 272.75,40.458278 L272.75,40.458278 L272.75,480.541722 C272.75,494.126901 271.308991,499.042674 268.654369,504.006385 C265.968829,509.027908 262.027908,512.968829 257.006385,515.654369 C252.042674,518.308991 247.126901,519.75 233.541722,519.75 L233.541722,519.75 L59.458278,519.75 C45.873099,519.75 40.9573256,518.308991 35.9936153,515.654369 C30.9720918,512.968829 27.0311708,509.027908 24.3456307,504.006385 C21.7298543,499.115308 20.2925011,494.270614 20.25093,481.134837 L20.25093,481.134837 L20.2509342,39.8645288 C20.2926451,26.728507 21.7300479,21.8843299 24.3456307,16.9936153 C27.0311708,11.9720918 30.9720918,8.0311708 35.9936153,5.34563066 C40.8846918,2.72985434 45.7293863,1.29250114 58.8651605,1.25092996 L58.8651605,1.25092996 Z M82.0798249,11.6630227 L56.650758,11.6637931 C49.8689841,11.6637931 43.7243006,14.3917174 39.2540573,18.8619607 C34.8030817,23.3129363 32.0129729,29.4901048 31.9007353,36.4198245 L31.9007353,484.586207 C31.9007353,491.367958 34.6286596,497.512642 39.0989029,501.982885 C43.5498785,506.43386 49.727047,509.223969 56.6567667,509.336207 L236.349265,509.336207 C243.131016,509.336207 249.275699,506.608283 253.745943,502.138039 C258.196918,497.687064 260.987027,491.509895 261.099265,484.580176 L261.099265,36.4137931 C261.099265,29.5792693 258.329027,23.3917693 253.850158,18.9129003 C249.371288,14.4340312 243.183788,11.6637931 236.349265,11.6637931 L210.922138,11.7481555 L210.922794,22.8814065 C210.922794,26.3194232 209.52928,29.4319232 207.276274,31.6849301 C205.023267,33.9379369 201.910767,35.3314507 198.472794,35.3314507 L94.5272059,35.3314507 C91.0892333,35.3314507 87.9767333,33.9379369 85.7237265,31.6849301 C83.4707196,29.4319232 82.0772059,26.3194232 82.0772059,22.8814507 L82.0798249,11.6630227 Z" id="screen-frame" stroke-opacity="0.03" stroke="#000000" stroke-width="1.5" fill="url(#linearGradient-8)"></path>
                        <g id="sensor-camera" opacity="0.6" transform="translate(129.000000, 17.000000)">
                            <g id="Group" opacity="0.75" transform="translate(46.428571, 0.000000)">
                                <g id="Oval">
                                    <use fill="#BFC0C5" fill-rule="evenodd" xlink:href="#path-9"></use>
                                    <use fill="black" fill-opacity="1" filter="url(#filter-10)" xlink:href="#path-9"></use>
                                    <ellipse stroke-opacity="0.568331069" stroke="#7D7D7D" stroke-width="0.5" cx="2.78571429" cy="3" rx="3.03571429" ry="3.25"></ellipse>
                                </g>
                            </g>
                            <g id="Rectangle-2">
                                <use fill="#BFC0C5" fill-rule="evenodd" xlink:href="#path-11"></use>
                                <use fill="black" fill-opacity="1" filter="url(#filter-12)" xlink:href="#path-11"></use>
                                <rect stroke-opacity="0.568331069" stroke="#7D7D7D" stroke-width="0.5" x="-0.25" y="1.08333333" width="31.452381" height="3.83333333" rx="1.91666667"></rect>
                            </g>
                        </g>
                    </g>
                    <g id="Group-23" transform="translate(36.000000, 175.000000)">
                        <g id="Rectangle-Copy-2">
                            <use fill="black" fill-opacity="1" filter="url(#filter-14)" xlink:href="#path-13"></use>
                            <rect stroke="#F5F5F5" stroke-width="1" stroke-linejoin="square" fill="#FFFFFF" fill-rule="evenodd" x="0.5" y="0.5" width="349" height="79" rx="10"></rect>
                        </g>
                        <g id="Group-22" transform="translate(22.000000, 16.000000)" fill-rule="nonzero">
                            <path d="M11.626,15 L11.626,11.906 L13.334,11.906 C15.28,11.906 16.596,10.45 16.596,8.434 C16.596,6.418 15.28,4.99 13.334,4.99 L9.176,4.99 L9.176,15 L11.626,15 Z M12.83,9.806 L11.626,9.806 L11.626,7.09 L12.872,7.09 C13.684,7.09 14.104,7.636 14.104,8.434 C14.104,9.232 13.684,9.806 12.83,9.806 Z M20.194,15 L20.194,12.27 C20.194,11.878 20.236,11.556 20.32,11.29 C20.67,10.212 21.608,10.03 22.182,10.03 C22.476,10.03 22.672,10.072 22.672,10.072 L22.672,7.692 L22.6305185,7.68474074 C22.5786667,7.67644444 22.4853333,7.664 22.392,7.664 C21.314,7.664 20.404,8.476 20.096,9.456 L20.068,9.456 C20.068,9.456 20.096,9.246 20.096,9.008 L20.096,7.79 L17.772,7.79 L17.772,15 L20.194,15 Z M26.186,6.88 L26.186,4.99 L23.82,4.99 L23.82,6.88 L26.186,6.88 Z M26.214,15 L26.214,7.79 L23.792,7.79 L23.792,15 L26.214,15 Z M29.98,15 L30.834,13.376 C30.904,13.25 31.002,13.012 31.002,13.012 L31.03,13.012 C31.03,13.012 31.128,13.25 31.198,13.376 L32.066,15 L34.726,15 L32.458,11.43 L34.768,7.79 L32.038,7.79 L31.254,9.4 C31.17,9.582 31.03,9.876 31.03,9.876 L31.002,9.876 C31.002,9.876 30.876,9.582 30.778,9.4 L29.994,7.79 L27.264,7.79 L29.588,11.43 L27.32,15 L29.98,15 Z M37.232,15.588 L40.816,4.5 L38.8,4.5 L35.216,15.588 L37.232,15.588 Z M44.316,15 L44.316,12.018 C44.316,11.71 44.33,11.388 44.386,11.122 C44.554,10.352 44.946,9.82 45.702,9.82 C46.164,9.82 46.262,10.198 46.262,10.73 L46.262,15 L48.684,15 L48.684,12.018 C48.684,11.724 48.684,11.43 48.74,11.178 C48.894,10.38 49.3,9.82 50.07,9.82 C50.532,9.82 50.63,10.198 50.63,10.73 L50.63,15 L53.052,15 L53.052,10.324 C53.052,8.336 52.03,7.622 50.714,7.622 C49.636,7.622 48.782,8.238 48.404,8.84 L48.376,8.84 C47.998,8.028 47.27,7.622 46.36,7.622 C45.226,7.622 44.554,8.364 44.218,8.868 L44.19,8.868 C44.19,8.868 44.218,8.658 44.218,8.42 L44.218,7.79 L41.894,7.79 L41.894,15 L44.316,15 Z M61.564,15 L61.564,12.9 L57.308,12.9 C57.378,11.612 61.41,11.01 61.41,7.888 C61.41,5.76 59.632,4.822 57.994,4.822 C55.39,4.822 54.466,6.978 54.466,6.978 L56.286,8.196 C56.286,8.196 56.818,7.132 57.77,7.132 C58.288,7.132 58.848,7.426 58.848,8.126 C58.848,9.568 54.522,10.226 54.522,13.922 C54.522,14.258 54.564,14.608 54.634,15 L61.564,15 Z" id="Prix/m2" fill="#333333"></path>
                            <path d="M34.446,42 L39.846,31.326 L39.846,29.13 L30.612,29.13 L30.612,31.83 L35.688,31.83 C36.336,31.83 36.516,31.776 36.516,31.776 L36.516,31.812 C36.516,31.812 36.138,32.1 35.688,32.982 L31.17,42 L34.446,42 Z M49.404,42.216 C52.212,42.216 54.174,40.29 54.174,37.626 C54.174,35.304 52.626,33.396 49.566,33.396 C49.08,33.396 48.63,33.522 48.63,33.522 L48.594,33.522 C48.594,33.522 48.666,33.27 48.666,33.018 L48.738,31.83 L53.202,31.83 L53.202,29.13 L46.002,29.13 L45.48,35.862 L47.154,36.492 C47.154,36.492 47.892,36.06 48.882,36.06 C50.052,36.06 50.934,36.654 50.934,37.662 C50.934,38.724 49.98,39.246 49.134,39.246 C47.694,39.246 46.524,38.094 46.524,38.094 L45.012,40.524 C45.012,40.524 46.56,42.216 49.404,42.216 Z M60.6,42.216 C64.254,42.216 65.442,39.228 65.442,35.538 C65.442,31.848 64.254,28.914 60.6,28.914 C56.946,28.914 55.758,31.848 55.758,35.538 C55.758,39.228 56.946,42.216 60.6,42.216 Z M60.6,39.336 C59.358,39.336 58.998,37.644 58.998,35.538 C58.998,33.45 59.358,31.794 60.6,31.794 C61.842,31.794 62.202,33.45 62.202,35.538 C62.202,37.644 61.842,39.336 60.6,39.336 Z M72.12,42.216 C75.774,42.216 76.962,39.228 76.962,35.538 C76.962,31.848 75.774,28.914 72.12,28.914 C68.466,28.914 67.278,31.848 67.278,35.538 C67.278,39.228 68.466,42.216 72.12,42.216 Z M72.12,39.336 C70.878,39.336 70.518,37.644 70.518,35.538 C70.518,33.45 70.878,31.794 72.12,31.794 C73.362,31.794 73.722,33.45 73.722,35.538 C73.722,37.644 73.362,39.336 72.12,39.336 Z M85.908,42.216 C87.222,42.216 88.212,41.856 88.212,41.856 L87.672,38.976 C87.672,38.976 86.862,39.246 85.962,39.246 C84.846,39.246 83.82,38.688 83.244,37.734 L86.034,37.734 L86.394,36.006 L82.668,36.006 C82.614,35.718 82.596,35.43 82.632,35.142 L86.574,35.142 L86.934,33.414 L83.046,33.414 C83.586,32.406 84.576,31.83 85.818,31.83 C86.538,31.83 87.24,32.01 87.24,32.01 L88.014,29.166 C88.014,29.166 86.988,28.914 85.908,28.914 C82.938,28.914 80.49,30.768 79.662,33.414 L78.366,33.414 L78.366,35.142 L79.356,35.142 C79.32,35.466 79.338,35.736 79.374,36.006 L78.366,36.006 L78.366,37.734 L79.698,37.734 C80.526,40.398 82.812,42.216 85.908,42.216 Z M91.596,42.756 L96.204,28.5 L93.612,28.5 L89.004,42.756 L91.596,42.756 Z M100.704,42 L100.704,38.166 C100.704,37.77 100.722,37.356 100.794,37.014 C101.01,36.024 101.514,35.34 102.486,35.34 C103.08,35.34 103.206,35.826 103.206,36.51 L103.206,42 L106.32,42 L106.32,38.166 C106.32,37.788 106.32,37.41 106.392,37.086 C106.59,36.06 107.112,35.34 108.102,35.34 C108.696,35.34 108.822,35.826 108.822,36.51 L108.822,42 L111.936,42 L111.936,35.988 C111.936,33.432 110.622,32.514 108.93,32.514 C107.544,32.514 106.446,33.306 105.96,34.08 L105.924,34.08 C105.438,33.036 104.502,32.514 103.332,32.514 C101.874,32.514 101.01,33.468 100.578,34.116 L100.542,34.116 C100.542,34.116 100.578,33.846 100.578,33.54 L100.578,32.73 L97.59,32.73 L97.59,42 L100.704,42 Z M122.88,42 L122.88,39.3 L117.408,39.3 C117.498,37.644 122.682,36.87 122.682,32.856 C122.682,30.12 120.396,28.914 118.29,28.914 C114.942,28.914 113.754,31.686 113.754,31.686 L116.094,33.252 C116.094,33.252 116.778,31.884 118.002,31.884 C118.668,31.884 119.388,32.262 119.388,33.162 C119.388,35.016 113.826,35.862 113.826,40.614 C113.826,41.046 113.88,41.496 113.97,42 L122.88,42 Z" id="7500€/m2" fill="#333333"></path>
                            <path d="M5.13891434,36.8468363 L4.27450756,35.9549715 C3.90849748,35.5773351 3.90849748,34.966689 4.27450756,34.59307 L11.8400137,26.7832273 C12.2060238,26.4055909 12.7978699,26.4055909 13.1599863,26.7832273 L20.7254924,34.5890526 C21.0915025,34.966689 21.0915025,35.5773351 20.7254924,35.9509541 L19.8610857,36.8428189 C19.4911819,37.2244727 18.8876546,37.2164379 18.5255383,36.8267492 L14.0594366,31.9897891 L14.0594366,43.5358219 C14.0594366,44.0701373 13.6428081,44.5 13.1249427,44.5 L11.878951,44.5 C11.3610857,44.5 10.9444572,44.0701373 10.9444572,43.5358219 L10.9444572,31.9897891 L6.47446175,36.8307667 C6.1123454,37.2244727 5.50881814,37.2325075 5.13891434,36.8468363 Z" id="Path" fill="#32D88E" transform="translate(12.500000, 35.500000) rotate(45.000000) translate(-12.500000, -35.500000) "></path>
                        </g>
                    </g>
                    <g id="Group-21" transform="translate(36.000000, 275.000000)">
                        <g id="Rectangle-Copy-2">
                            <use fill="black" fill-opacity="1" filter="url(#filter-16)" xlink:href="#path-15"></use>
                            <rect stroke="#F5F5F5" stroke-width="1" stroke-linejoin="square" fill="#FFFFFF" fill-rule="evenodd" x="0.5" y="0.5" width="349" height="79" rx="10"></rect>
                        </g>
                        <g id="Group-20" transform="translate(21.899495, 16.000000)" fill-rule="nonzero">
                            <path d="M11.7265051,15 L11.7265051,10.338 C11.7265051,9.708 11.6145051,8.63 11.6145051,8.63 L11.6425051,8.63 C11.6425051,8.63 12.0905051,9.68 12.4825051,10.338 L15.2685051,15 L17.7325051,15 L17.7325051,4.99 L15.2825051,4.99 L15.2825051,9.666 C15.2825051,10.296 15.3945051,11.374 15.3945051,11.374 L15.3665051,11.374 C15.3665051,11.374 14.9185051,10.324 14.5265051,9.666 L11.7545051,4.99 L9.27650506,4.99 L9.27650506,15 L11.7265051,15 Z M23.3605051,15.168 C25.6285051,15.168 27.4485051,13.67 27.4485051,11.416 C27.4485051,9.148 25.6285051,7.622 23.3465051,7.622 C21.0925051,7.622 19.2725051,9.148 19.2725051,11.416 C19.2725051,13.67 21.0925051,15.168 23.3605051,15.168 Z M23.3605051,13.152 C22.4785051,13.152 21.7225051,12.494 21.7225051,11.416 C21.7225051,10.324 22.4785051,9.638 23.3605051,9.638 C24.2425051,9.638 24.9985051,10.324 24.9985051,11.416 C24.9985051,12.494 24.2425051,13.152 23.3605051,13.152 Z M31.1725051,15.168 C32.1385051,15.168 33.0345051,14.692 33.4265051,13.922 L33.4545051,13.922 C33.4545051,13.922 33.4265051,14.132 33.4265051,14.37 L33.4265051,15 L35.7505051,15 L35.7505051,7.79 L33.3285051,7.79 L33.3285051,10.982 C33.3285051,12.06 32.8385051,12.97 31.8025051,12.97 C31.2985051,12.97 31.0325051,12.69 31.0325051,12.018 L31.0325051,7.79 L28.6105051,7.79 L28.6105051,12.466 C28.6105051,14.496 29.7445051,15.168 31.1725051,15.168 Z M42.0645051,15 L44.5145051,7.79 L41.9525051,7.79 L40.8465051,11.626 C40.7065051,12.102 40.5805051,12.872 40.5805051,12.872 L40.5525051,12.872 C40.5525051,12.872 40.4265051,12.088 40.2865051,11.626 L39.1665051,7.79 L36.6185051,7.79 L39.1105051,15 L42.0645051,15 Z M48.8545051,15.168 C50.7725051,15.168 51.9345051,14.118 51.9345051,14.118 L51.0385051,12.424 C51.0385051,12.424 50.0865051,13.152 49.0505051,13.152 C48.2805051,13.152 47.5525051,12.746 47.3705051,11.864 L51.9205051,11.864 C51.9205051,11.864 51.9765051,11.346 51.9765051,11.108 C51.9765051,9.106 50.7725051,7.622 48.6445051,7.622 C46.3205051,7.622 44.8925051,9.274 44.8925051,11.388 C44.8925051,13.306 46.2785051,15.168 48.8545051,15.168 Z M49.5405051,10.478 L47.4265051,10.478 C47.5525051,9.946 47.8885051,9.442 48.5885051,9.442 C49.1625051,9.442 49.5405051,9.932 49.5405051,10.478 Z M55.1965051,15.168 C56.7085051,15.168 57.2405051,14.118 57.2405051,14.118 L57.2685051,14.118 C57.2685051,14.118 57.2405051,14.328 57.2405051,14.566 L57.2405051,15 L59.4525051,15 L59.4525051,10.562 C59.4525051,8.728 58.2345051,7.622 56.2045051,7.622 C54.4265051,7.622 53.1805051,8.56 53.1805051,8.56 L54.0205051,10.268 C54.0205051,10.268 55.0565051,9.582 55.9665051,9.582 C56.5685051,9.582 57.0305051,9.778 57.0305051,10.38 L57.0305051,10.506 L56.9325051,10.506 C55.8125051,10.506 52.7465051,10.744 52.7465051,12.844 C52.7465051,14.272 53.8525051,15.168 55.1965051,15.168 Z M55.8685051,13.32 C55.3925051,13.32 55.1825051,13.054 55.1825051,12.718 C55.1825051,12.116 56.0645051,11.892 56.8345051,11.892 L57.0585051,11.892 L57.0585051,12.046 C57.0585051,12.634 56.4985051,13.32 55.8685051,13.32 Z M63.5965051,15.168 C64.5625051,15.168 65.4585051,14.692 65.8505051,13.922 L65.8785051,13.922 C65.8785051,13.922 65.8505051,14.132 65.8505051,14.37 L65.8505051,15 L68.1745051,15 L68.1745051,7.79 L65.7525051,7.79 L65.7525051,10.982 C65.7525051,12.06 65.2625051,12.97 64.2265051,12.97 C63.7225051,12.97 63.4565051,12.69 63.4565051,12.018 L63.4565051,7.79 L61.0345051,7.79 L61.0345051,12.466 C61.0345051,14.496 62.1685051,15.168 63.5965051,15.168 Z M71.9405051,15 L72.7945051,13.376 C72.8645051,13.25 72.9625051,13.012 72.9625051,13.012 L72.9905051,13.012 C72.9905051,13.012 73.0885051,13.25 73.1585051,13.376 L74.0265051,15 L76.6865051,15 L74.4185051,11.43 L76.7285051,7.79 L73.9985051,7.79 L73.2145051,9.4 C73.1305051,9.582 72.9905051,9.876 72.9905051,9.876 L72.9625051,9.876 C72.9625051,9.876 72.8365051,9.582 72.7385051,9.4 L71.9545051,7.79 L69.2245051,7.79 L71.5485051,11.43 L69.2805051,15 L71.9405051,15 Z M85.2405051,15.168 C87.1585051,15.168 88.6005051,13.684 88.6005051,11.402 C88.6005051,9.162 87.3125051,7.622 85.3525051,7.622 C84.0785051,7.622 83.4065051,8.392 83.4065051,8.392 L83.3785051,8.392 C83.3785051,8.392 83.4065051,8.14 83.4065051,7.776 L83.4065051,4.99 L80.9845051,4.99 L80.9845051,15 L83.2525051,15 L83.2525051,14.762 C83.2525051,14.538 83.2385051,14.356 83.2385051,14.356 L83.2665051,14.356 C83.2665051,14.356 83.9105051,15.168 85.2405051,15.168 Z M84.7505051,13.166 C83.7985051,13.166 83.3365051,12.312 83.3365051,11.444 C83.3365051,10.198 84.0225051,9.666 84.7505051,9.666 C85.5905051,9.666 86.1645051,10.366 86.1645051,11.444 C86.1645051,12.55 85.5065051,13.166 84.7505051,13.166 Z M92.2965051,6.88 L92.2965051,4.99 L89.9305051,4.99 L89.9305051,6.88 L92.2965051,6.88 Z M92.3245051,15 L92.3245051,7.79 L89.9025051,7.79 L89.9025051,15 L92.3245051,15 Z M97.5605051,15.168 C99.4785051,15.168 100.640505,14.118 100.640505,14.118 L99.7445051,12.424 C99.7445051,12.424 98.7925051,13.152 97.7565051,13.152 C96.9865051,13.152 96.2585051,12.746 96.0765051,11.864 L100.626505,11.864 C100.626505,11.864 100.682505,11.346 100.682505,11.108 C100.682505,9.106 99.4785051,7.622 97.3505051,7.622 C95.0265051,7.622 93.5985051,9.274 93.5985051,11.388 C93.5985051,13.306 94.9845051,15.168 97.5605051,15.168 Z M98.2465051,10.478 L96.1325051,10.478 C96.2585051,9.946 96.5945051,9.442 97.2945051,9.442 C97.8685051,9.442 98.2465051,9.932 98.2465051,10.478 Z M104.420505,15 L104.420505,11.808 C104.420505,11.458 104.462505,11.136 104.560505,10.856 C104.770505,10.24 105.232505,9.82 105.988505,9.82 C106.520505,9.82 106.786505,10.1 106.786505,10.772 L106.786505,15 L109.208505,15 L109.208505,10.324 C109.208505,8.294 108.074505,7.622 106.618505,7.622 C105.344505,7.622 104.658505,8.308 104.322505,8.868 L104.294505,8.868 C104.294505,8.868 104.322505,8.658 104.322505,8.42 L104.322505,7.79 L101.998505,7.79 L101.998505,15 L104.420505,15 Z M113.226505,15.168 C115.088505,15.168 116.180505,14.118 116.180505,12.886 C116.180505,10.562 112.806505,10.478 112.806505,9.932 C112.806505,9.68 113.156505,9.582 113.520505,9.582 C114.528505,9.582 115.228505,10.17 115.228505,10.17 L116.054505,8.448 C116.054505,8.448 115.200505,7.622 113.520505,7.622 C111.854505,7.622 110.552505,8.462 110.552505,9.82 C110.552505,12.172 113.926505,12.242 113.926505,12.872 C113.926505,13.11 113.576505,13.208 113.212505,13.208 C112.176505,13.208 111.378505,12.48 111.378505,12.48 L110.342505,14.104 C110.342505,14.104 111.420505,15.168 113.226505,15.168 Z M124.734505,7.09 L123.600505,4.99 L121.206505,4.99 L122.858505,7.09 L124.734505,7.09 Z M122.606505,15.168 C124.118505,15.168 124.650505,14.118 124.650505,14.118 L124.678505,14.118 C124.678505,14.118 124.650505,14.328 124.650505,14.566 L124.650505,15 L126.862505,15 L126.862505,10.562 C126.862505,8.728 125.644505,7.622 123.614505,7.622 C121.836505,7.622 120.590505,8.56 120.590505,8.56 L121.430505,10.268 C121.430505,10.268 122.466505,9.582 123.376505,9.582 C123.978505,9.582 124.440505,9.778 124.440505,10.38 L124.440505,10.506 L124.342505,10.506 C123.222505,10.506 120.156505,10.744 120.156505,12.844 C120.156505,14.272 121.262505,15.168 122.606505,15.168 Z M123.278505,13.32 C122.802505,13.32 122.592505,13.054 122.592505,12.718 C122.592505,12.116 123.474505,11.892 124.244505,11.892 L124.468505,11.892 L124.468505,12.046 C124.468505,12.634 123.908505,13.32 123.278505,13.32 Z M136.270505,15 L138.720505,7.79 L136.158505,7.79 L135.052505,11.626 C134.912505,12.102 134.786505,12.872 134.786505,12.872 L134.758505,12.872 C134.758505,12.872 134.632505,12.088 134.492505,11.626 L133.372505,7.79 L130.824505,7.79 L133.316505,15 L136.270505,15 Z M143.060505,15.168 C144.978505,15.168 146.140505,14.118 146.140505,14.118 L145.244505,12.424 C145.244505,12.424 144.292505,13.152 143.256505,13.152 C142.486505,13.152 141.758505,12.746 141.576505,11.864 L146.126505,11.864 C146.126505,11.864 146.182505,11.346 146.182505,11.108 C146.182505,9.106 144.978505,7.622 142.850505,7.622 C140.526505,7.622 139.098505,9.274 139.098505,11.388 C139.098505,13.306 140.484505,15.168 143.060505,15.168 Z M143.746505,10.478 L141.632505,10.478 C141.758505,9.946 142.094505,9.442 142.794505,9.442 C143.368505,9.442 143.746505,9.932 143.746505,10.478 Z M149.920505,15 L149.920505,11.808 C149.920505,11.458 149.962505,11.136 150.060505,10.856 C150.270505,10.24 150.732505,9.82 151.488505,9.82 C152.020505,9.82 152.286505,10.1 152.286505,10.772 L152.286505,15 L154.708505,15 L154.708505,10.324 C154.708505,8.294 153.574505,7.622 152.118505,7.622 C150.844505,7.622 150.158505,8.308 149.822505,8.868 L149.794505,8.868 C149.794505,8.868 149.822505,8.658 149.822505,8.42 L149.822505,7.79 L147.498505,7.79 L147.498505,15 L149.920505,15 Z M159.160505,15.168 C160.644505,15.168 161.246505,14.118 161.246505,14.118 L161.274505,14.118 C161.274505,14.118 161.264219,14.2517143 161.261281,14.4309796 L161.260505,15 L163.528505,15 L163.528505,4.99 L161.106505,4.99 L161.106505,7.874 C161.106505,8.056 161.120505,8.196 161.120505,8.196 L161.092505,8.196 C161.092505,8.196 160.658505,7.622 159.202505,7.622 C157.284505,7.622 155.912505,9.106 155.912505,11.388 C155.912505,13.628 157.200505,15.168 159.160505,15.168 Z M159.762505,13.166 C158.922505,13.166 158.348505,12.466 158.348505,11.388 C158.348505,10.282 159.006505,9.666 159.762505,9.666 C160.714505,9.666 161.176505,10.52 161.176505,11.388 C161.176505,12.634 160.490505,13.166 159.762505,13.166 Z M167.742505,15 L167.742505,12.27 C167.742505,11.878 167.784505,11.556 167.868505,11.29 C168.218505,10.212 169.156505,10.03 169.730505,10.03 C170.024505,10.03 170.220505,10.072 170.220505,10.072 L170.220505,7.692 L170.179024,7.68474074 C170.127172,7.67644444 170.033838,7.664 169.940505,7.664 C168.862505,7.664 167.952505,8.476 167.644505,9.456 L167.616505,9.456 C167.616505,9.456 167.644505,9.246 167.644505,9.008 L167.644505,7.79 L165.320505,7.79 L165.320505,15 L167.742505,15 Z M174.784505,15.168 C176.702505,15.168 177.864505,14.118 177.864505,14.118 L176.968505,12.424 C176.968505,12.424 176.016505,13.152 174.980505,13.152 C174.210505,13.152 173.482505,12.746 173.300505,11.864 L177.850505,11.864 C177.850505,11.864 177.906505,11.346 177.906505,11.108 C177.906505,9.106 176.702505,7.622 174.574505,7.622 C172.250505,7.622 170.822505,9.274 170.822505,11.388 C170.822505,13.306 172.208505,15.168 174.784505,15.168 Z M175.470505,10.478 L173.356505,10.478 C173.482505,9.946 173.818505,9.442 174.518505,9.442 C175.092505,9.442 175.470505,9.932 175.470505,10.478 Z M180.636505,15.588 L184.220505,4.5 L182.204505,4.5 L178.620505,15.588 L180.636505,15.588 Z M187.622505,15.168 C189.484505,15.168 190.576505,14.118 190.576505,12.886 C190.576505,10.562 187.202505,10.478 187.202505,9.932 C187.202505,9.68 187.552505,9.582 187.916505,9.582 C188.924505,9.582 189.624505,10.17 189.624505,10.17 L190.450505,8.448 C190.450505,8.448 189.596505,7.622 187.916505,7.622 C186.250505,7.622 184.948505,8.462 184.948505,9.82 C184.948505,12.172 188.322505,12.242 188.322505,12.872 C188.322505,13.11 187.972505,13.208 187.608505,13.208 C186.572505,13.208 185.774505,12.48 185.774505,12.48 L184.738505,14.104 C184.738505,14.104 185.816505,15.168 187.622505,15.168 Z M195.336505,15.168 C197.254505,15.168 198.416505,14.118 198.416505,14.118 L197.520505,12.424 C197.520505,12.424 196.568505,13.152 195.532505,13.152 C194.762505,13.152 194.034505,12.746 193.852505,11.864 L198.402505,11.864 C198.402505,11.864 198.458505,11.346 198.458505,11.108 C198.458505,9.106 197.254505,7.622 195.126505,7.622 C192.802505,7.622 191.374505,9.274 191.374505,11.388 C191.374505,13.306 192.760505,15.168 195.336505,15.168 Z M196.022505,10.478 L193.908505,10.478 C194.034505,9.946 194.370505,9.442 195.070505,9.442 C195.644505,9.442 196.022505,9.932 196.022505,10.478 Z M202.196505,15 L202.196505,12.018 C202.196505,11.71 202.210505,11.388 202.266505,11.122 C202.434505,10.352 202.826505,9.82 203.582505,9.82 C204.044505,9.82 204.142505,10.198 204.142505,10.73 L204.142505,15 L206.564505,15 L206.564505,12.018 C206.564505,11.724 206.564505,11.43 206.620505,11.178 C206.774505,10.38 207.180505,9.82 207.950505,9.82 C208.412505,9.82 208.510505,10.198 208.510505,10.73 L208.510505,15 L210.932505,15 L210.932505,10.324 C210.932505,8.336 209.910505,7.622 208.594505,7.622 C207.516505,7.622 206.662505,8.238 206.284505,8.84 L206.256505,8.84 C205.878505,8.028 205.150505,7.622 204.240505,7.622 C203.106505,7.622 202.434505,8.364 202.098505,8.868 L202.070505,8.868 C202.070505,8.868 202.098505,8.658 202.098505,8.42 L202.098505,7.79 L199.774505,7.79 L199.774505,15 L202.196505,15 Z M214.530505,15.168 C216.042505,15.168 216.574505,14.118 216.574505,14.118 L216.602505,14.118 C216.602505,14.118 216.574505,14.328 216.574505,14.566 L216.574505,15 L218.786505,15 L218.786505,10.562 C218.786505,8.728 217.568505,7.622 215.538505,7.622 C213.760505,7.622 212.514505,8.56 212.514505,8.56 L213.354505,10.268 C213.354505,10.268 214.390505,9.582 215.300505,9.582 C215.902505,9.582 216.364505,9.778 216.364505,10.38 L216.364505,10.506 L216.266505,10.506 C215.146505,10.506 212.080505,10.744 212.080505,12.844 C212.080505,14.272 213.186505,15.168 214.530505,15.168 Z M215.202505,13.32 C214.726505,13.32 214.516505,13.054 214.516505,12.718 C214.516505,12.116 215.398505,11.892 216.168505,11.892 L216.392505,11.892 L216.392505,12.046 C216.392505,12.634 215.832505,13.32 215.202505,13.32 Z M222.860505,6.88 L222.860505,4.99 L220.494505,4.99 L220.494505,6.88 L222.860505,6.88 Z M222.888505,15 L222.888505,7.79 L220.466505,7.79 L220.466505,15 L222.888505,15 Z M227.102505,15 L227.102505,11.808 C227.102505,11.458 227.144505,11.136 227.242505,10.856 C227.452505,10.24 227.914505,9.82 228.670505,9.82 C229.202505,9.82 229.468505,10.1 229.468505,10.772 L229.468505,15 L231.890505,15 L231.890505,10.324 C231.890505,8.294 230.756505,7.622 229.300505,7.622 C228.026505,7.622 227.340505,8.308 227.004505,8.868 L226.976505,8.868 C226.976505,8.868 227.004505,8.658 227.004505,8.42 L227.004505,7.79 L224.680505,7.79 L224.680505,15 L227.102505,15 Z M237.028505,15.168 C238.946505,15.168 240.108505,14.118 240.108505,14.118 L239.212505,12.424 C239.212505,12.424 238.260505,13.152 237.224505,13.152 C236.454505,13.152 235.726505,12.746 235.544505,11.864 L240.094505,11.864 C240.094505,11.864 240.150505,11.346 240.150505,11.108 C240.150505,9.106 238.946505,7.622 236.818505,7.622 C234.494505,7.622 233.066505,9.274 233.066505,11.388 C233.066505,13.306 234.452505,15.168 237.028505,15.168 Z M237.714505,10.478 L235.600505,10.478 C235.726505,9.946 236.062505,9.442 236.762505,9.442 C237.336505,9.442 237.714505,9.932 237.714505,10.478 Z" id="Nouveauxbiensàvendre/semaine" fill="#333333"></path>
                            <path d="M35.0325051,42.216 C38.2545051,42.216 39.8025051,40.02 39.8025051,37.824 C39.8025051,36.024 38.5965051,34.512 36.6885051,34.098 L39.2985051,31.092 L39.2985051,29.13 L31.1805051,29.13 L31.1805051,31.83 L34.2585051,31.83 C35.0685051,31.83 35.4825051,31.74 35.4825051,31.74 L35.4825051,31.776 C35.4825051,31.776 34.9785051,32.244 34.3665051,32.982 L32.6745051,35.016 L33.3405051,36.546 L34.2405051,36.546 C35.6265051,36.546 36.6345051,36.96 36.6345051,37.968 C36.6345051,38.67 35.9685051,39.246 34.7985051,39.246 C33.3045051,39.246 32.1525051,38.094 32.1525051,38.094 L30.6405051,40.524 C30.6405051,40.524 32.1525051,42.216 35.0325051,42.216 Z M45.5985051,42.216 C48.8205051,42.216 50.3685051,40.02 50.3685051,37.824 C50.3685051,36.024 49.1625051,34.512 47.2545051,34.098 L49.8645051,31.092 L49.8645051,29.13 L41.7465051,29.13 L41.7465051,31.83 L44.8245051,31.83 C45.6345051,31.83 46.0485051,31.74 46.0485051,31.74 L46.0485051,31.776 C46.0485051,31.776 45.5445051,32.244 44.9325051,32.982 L43.2405051,35.016 L43.9065051,36.546 L44.8065051,36.546 C46.1925051,36.546 47.2005051,36.96 47.2005051,37.968 C47.2005051,38.67 46.5345051,39.246 45.3645051,39.246 C43.8705051,39.246 42.7185051,38.094 42.7185051,38.094 L41.2065051,40.524 C41.2065051,40.524 42.7185051,42.216 45.5985051,42.216 Z" id="33" fill="#333333"></path>
                            <g id="arrow-up-copy-3" transform="translate(14.000000, 34.500000) scale(1, -1) rotate(45.000000) translate(-14.000000, -34.500000) translate(5.000000, 25.000000)" fill="#FF3232">
                                <path d="M2.06353554,10.4222151 L1.19912876,9.53035034 C0.833118683,9.15271392 0.833118683,8.54206778 1.19912876,8.16844877 L8.76463495,0.358606116 C9.13064502,-0.0190303086 9.72249111,-0.0190303086 10.0846075,0.358606116 L17.6501136,8.16443136 C18.0161237,8.54206778 18.0161237,9.15271392 17.6501136,9.52633293 L16.7857069,10.4181977 C16.4158031,10.7998515 15.8122758,10.7918167 15.4501595,10.402128 L10.9840578,5.56516788 L10.9840578,17.1112007 C10.9840578,17.6455161 10.5674293,18.0753788 10.0495639,18.0753788 L8.80357219,18.0753788 C8.28570686,18.0753788 7.86907837,17.6455161 7.86907837,17.1112007 L7.86907837,5.56516788 L3.39908295,10.4061455 C3.0369666,10.7998515 2.43343934,10.8078863 2.06353554,10.4222151 Z" id="Path"></path>
                            </g>
                        </g>
                    </g>
                    <g id="Group-16" transform="translate(36.000000, 375.000000)">
                        <g id="Rectangle-Copy-2">
                            <use fill="black" fill-opacity="1" filter="url(#filter-18)" xlink:href="#path-17"></use>
                            <rect stroke="#F5F5F5" stroke-width="1" stroke-linejoin="square" fill="#FFFFFF" fill-rule="evenodd" x="0.5" y="0.5" width="349" height="79" rx="10"></rect>
                        </g>
                        <g id="Group-9" transform="translate(19.899495, 16.000000)" fill-rule="nonzero">
                            <path d="M16.1065051,15 L19.6345051,4.99 L17.0165051,4.99 L15.2245051,10.688 C15.0285051,11.318 14.8465051,12.298 14.8465051,12.298 L14.8185051,12.298 C14.8185051,12.298 14.6365051,11.318 14.4405051,10.688 L12.6765051,4.99 L10.0165051,4.99 L13.5585051,15 L16.1065051,15 Z M22.8405051,6.88 L22.8405051,4.99 L20.4745051,4.99 L20.4745051,6.88 L22.8405051,6.88 Z M22.8685051,15 L22.8685051,7.79 L20.4465051,7.79 L20.4465051,15 L22.8685051,15 Z M28.3985051,15.07 C28.7905051,15.07 29.0565051,15.028 29.0565051,15.028 L29.0565051,12.928 C29.0565051,12.928 28.9305051,12.942 28.7345051,12.942 C28.2725051,12.942 27.4465051,12.83 27.4465051,12.018 L27.4465051,9.806 L28.9585051,9.806 L28.9585051,7.916 L27.4465051,7.916 L27.4465051,5.844 L25.0945051,5.844 L25.0945051,7.916 L24.1005051,7.916 L24.1005051,9.806 L25.0245051,9.806 L25.0245051,12.34 C25.0245051,14.762 27.2505051,15.07 28.3985051,15.07 Z M33.9145051,15.168 C35.8325051,15.168 36.9945051,14.118 36.9945051,14.118 L36.0985051,12.424 C36.0985051,12.424 35.1465051,13.152 34.1105051,13.152 C33.3405051,13.152 32.6125051,12.746 32.4305051,11.864 L36.9805051,11.864 C36.9805051,11.864 37.0365051,11.346 37.0365051,11.108 C37.0365051,9.106 35.8325051,7.622 33.7045051,7.622 C31.3805051,7.622 29.9525051,9.274 29.9525051,11.388 C29.9525051,13.306 31.3385051,15.168 33.9145051,15.168 Z M34.6005051,10.478 L32.4865051,10.478 C32.6125051,9.946 32.9485051,9.442 33.6485051,9.442 C34.2225051,9.442 34.6005051,9.932 34.6005051,10.478 Z M40.6765051,15.168 C42.5385051,15.168 43.6305051,14.118 43.6305051,12.886 C43.6305051,10.562 40.2565051,10.478 40.2565051,9.932 C40.2565051,9.68 40.6065051,9.582 40.9705051,9.582 C41.9785051,9.582 42.6785051,10.17 42.6785051,10.17 L43.5045051,8.448 C43.5045051,8.448 42.6505051,7.622 40.9705051,7.622 C39.3045051,7.622 38.0025051,8.462 38.0025051,9.82 C38.0025051,12.172 41.3765051,12.242 41.3765051,12.872 C41.3765051,13.11 41.0265051,13.208 40.6625051,13.208 C39.6265051,13.208 38.8285051,12.48 38.8285051,12.48 L37.7925051,14.104 C37.7925051,14.104 38.8705051,15.168 40.6765051,15.168 Z M47.2705051,15.168 C49.1325051,15.168 50.2245051,14.118 50.2245051,12.886 C50.2245051,10.562 46.8505051,10.478 46.8505051,9.932 C46.8505051,9.68 47.2005051,9.582 47.5645051,9.582 C48.5725051,9.582 49.2725051,10.17 49.2725051,10.17 L50.0985051,8.448 C50.0985051,8.448 49.2445051,7.622 47.5645051,7.622 C45.8985051,7.622 44.5965051,8.462 44.5965051,9.82 C44.5965051,12.172 47.9705051,12.242 47.9705051,12.872 C47.9705051,13.11 47.6205051,13.208 47.2565051,13.208 C46.2205051,13.208 45.4225051,12.48 45.4225051,12.48 L44.3865051,14.104 C44.3865051,14.104 45.4645051,15.168 47.2705051,15.168 Z M54.9845051,15.168 C56.9025051,15.168 58.0645051,14.118 58.0645051,14.118 L57.1685051,12.424 C57.1685051,12.424 56.2165051,13.152 55.1805051,13.152 C54.4105051,13.152 53.6825051,12.746 53.5005051,11.864 L58.0505051,11.864 C58.0505051,11.864 58.1065051,11.346 58.1065051,11.108 C58.1065051,9.106 56.9025051,7.622 54.7745051,7.622 C52.4505051,7.622 51.0225051,9.274 51.0225051,11.388 C51.0225051,13.306 52.4085051,15.168 54.9845051,15.168 Z M55.6705051,10.478 L53.5565051,10.478 C53.6825051,9.946 54.0185051,9.442 54.7185051,9.442 C55.2925051,9.442 55.6705051,9.932 55.6705051,10.478 Z M65.3865051,15.168 C66.8705051,15.168 67.4725051,14.118 67.4725051,14.118 L67.5005051,14.118 C67.5005051,14.118 67.4902193,14.2517143 67.4872806,14.4309796 L67.4865051,15 L69.7545051,15 L69.7545051,4.99 L67.3325051,4.99 L67.3325051,7.874 C67.3325051,8.056 67.3465051,8.196 67.3465051,8.196 L67.3185051,8.196 C67.3185051,8.196 66.8845051,7.622 65.4285051,7.622 C63.5105051,7.622 62.1385051,9.106 62.1385051,11.388 C62.1385051,13.628 63.4265051,15.168 65.3865051,15.168 Z M65.9885051,13.166 C65.1485051,13.166 64.5745051,12.466 64.5745051,11.388 C64.5745051,10.282 65.2325051,9.666 65.9885051,9.666 C66.9405051,9.666 67.4025051,10.52 67.4025051,11.388 C67.4025051,12.634 66.7165051,13.166 65.9885051,13.166 Z M74.9905051,15.168 C76.9085051,15.168 78.0705051,14.118 78.0705051,14.118 L77.1745051,12.424 C77.1745051,12.424 76.2225051,13.152 75.1865051,13.152 C74.4165051,13.152 73.6885051,12.746 73.5065051,11.864 L78.0565051,11.864 C78.0565051,11.864 78.1125051,11.346 78.1125051,11.108 C78.1125051,9.106 76.9085051,7.622 74.7805051,7.622 C72.4565051,7.622 71.0285051,9.274 71.0285051,11.388 C71.0285051,13.306 72.4145051,15.168 74.9905051,15.168 Z M75.6765051,10.478 L73.5625051,10.478 C73.6885051,9.946 74.0245051,9.442 74.7245051,9.442 C75.2985051,9.442 75.6765051,9.932 75.6765051,10.478 Z M87.1565051,15 L89.6065051,7.79 L87.0445051,7.79 L85.9385051,11.626 C85.7985051,12.102 85.6725051,12.872 85.6725051,12.872 L85.6445051,12.872 C85.6445051,12.872 85.5185051,12.088 85.3785051,11.626 L84.2585051,7.79 L81.7105051,7.79 L84.2025051,15 L87.1565051,15 Z M93.9465051,15.168 C95.8645051,15.168 97.0265051,14.118 97.0265051,14.118 L96.1305051,12.424 C96.1305051,12.424 95.1785051,13.152 94.1425051,13.152 C93.3725051,13.152 92.6445051,12.746 92.4625051,11.864 L97.0125051,11.864 C97.0125051,11.864 97.0685051,11.346 97.0685051,11.108 C97.0685051,9.106 95.8645051,7.622 93.7365051,7.622 C91.4125051,7.622 89.9845051,9.274 89.9845051,11.388 C89.9845051,13.306 91.3705051,15.168 93.9465051,15.168 Z M94.6325051,10.478 L92.5185051,10.478 C92.6445051,9.946 92.9805051,9.442 93.6805051,9.442 C94.2545051,9.442 94.6325051,9.932 94.6325051,10.478 Z M100.806505,15 L100.806505,11.808 C100.806505,11.458 100.848505,11.136 100.946505,10.856 C101.156505,10.24 101.618505,9.82 102.374505,9.82 C102.906505,9.82 103.172505,10.1 103.172505,10.772 L103.172505,15 L105.594505,15 L105.594505,10.324 C105.594505,8.294 104.460505,7.622 103.004505,7.622 C101.730505,7.622 101.044505,8.308 100.708505,8.868 L100.680505,8.868 C100.680505,8.868 100.708505,8.658 100.708505,8.42 L100.708505,7.79 L98.3845051,7.79 L98.3845051,15 L100.806505,15 Z M111.026505,15.07 C111.418505,15.07 111.684505,15.028 111.684505,15.028 L111.684505,12.928 C111.684505,12.928 111.558505,12.942 111.362505,12.942 C110.900505,12.942 110.074505,12.83 110.074505,12.018 L110.074505,9.806 L111.586505,9.806 L111.586505,7.916 L110.074505,7.916 L110.074505,5.844 L107.722505,5.844 L107.722505,7.916 L106.728505,7.916 L106.728505,9.806 L107.652505,9.806 L107.652505,12.34 C107.652505,14.762 109.878505,15.07 111.026505,15.07 Z M116.542505,15.168 C118.460505,15.168 119.622505,14.118 119.622505,14.118 L118.726505,12.424 C118.726505,12.424 117.774505,13.152 116.738505,13.152 C115.968505,13.152 115.240505,12.746 115.058505,11.864 L119.608505,11.864 C119.608505,11.864 119.664505,11.346 119.664505,11.108 C119.664505,9.106 118.460505,7.622 116.332505,7.622 C114.008505,7.622 112.580505,9.274 112.580505,11.388 C112.580505,13.306 113.966505,15.168 116.542505,15.168 Z M117.228505,10.478 L115.114505,10.478 C115.240505,9.946 115.576505,9.442 116.276505,9.442 C116.850505,9.442 117.228505,9.932 117.228505,10.478 Z" id="Vitessedevente" fill="#333333"></path>
                            <path d="M36.7625051,42 L36.7625051,37.662 L38.2385051,37.662 L40.5245051,42 L44.0345051,42 L41.5325051,37.5 C41.2265051,36.96 41.0465051,36.726 41.0465051,36.726 L41.0465051,36.69 C42.3245051,36.042 42.9725051,34.548 42.9725051,33.18 C42.9725051,31.308 42.0545051,29.994 40.5965051,29.436 C40.0385051,29.22 39.4085051,29.13 38.0945051,29.13 L33.6125051,29.13 L33.6125051,42 L36.7625051,42 Z M38.1305051,34.962 L36.7625051,34.962 L36.7625051,31.83 L37.8245051,31.83 C39.4085051,31.83 39.7685051,32.406 39.7685051,33.378 C39.7685051,34.404 39.1385051,34.962 38.1305051,34.962 Z M48.0305051,42.216 C49.9745051,42.216 50.6585051,40.866 50.6585051,40.866 L50.6945051,40.866 C50.6945051,40.866 50.6585051,41.136 50.6585051,41.442 L50.6585051,42 L53.5025051,42 L53.5025051,36.294 C53.5025051,33.936 51.9365051,32.514 49.3265051,32.514 C47.0405051,32.514 45.4385051,33.72 45.4385051,33.72 L46.5185051,35.916 C46.5185051,35.916 47.8505051,35.034 49.0205051,35.034 C49.7945051,35.034 50.3885051,35.286 50.3885051,36.06 L50.3885051,36.222 L50.2625051,36.222 C48.8225051,36.222 44.8805051,36.528 44.8805051,39.228 C44.8805051,41.064 46.3025051,42.216 48.0305051,42.216 Z M48.8945051,39.84 C48.2825051,39.84 48.0125051,39.498 48.0125051,39.066 C48.0125051,38.292 49.1465051,38.004 50.1365051,38.004 L50.4245051,38.004 L50.4245051,38.202 C50.4245051,38.958 49.7045051,39.84 48.8945051,39.84 Z M58.7765051,45.6 L58.7765051,42.126 C58.7765051,41.658 58.7405051,41.334 58.7405051,41.334 L58.7765051,41.334 C58.7765051,41.334 59.6225051,42.216 61.1345051,42.216 C63.6005051,42.216 65.4545051,40.308 65.4545051,37.374 C65.4545051,34.494 63.7985051,32.514 61.2785051,32.514 C59.3165051,32.514 58.4705051,33.792 58.4705051,33.792 L58.4345051,33.792 C58.4345051,33.792 58.4705051,33.504 58.4705051,33.198 L58.4705051,32.73 L55.6625051,32.73 L55.6625051,45.6 L58.7765051,45.6 Z M60.5045051,39.642 C59.2805051,39.642 58.6865051,38.544 58.6865051,37.428 C58.6865051,35.826 59.5685051,35.142 60.5045051,35.142 C61.5845051,35.142 62.3225051,36.042 62.3225051,37.428 C62.3225051,38.85 61.4765051,39.642 60.5045051,39.642 Z M70.2065051,31.56 L70.2065051,29.13 L67.1645051,29.13 L67.1645051,31.56 L70.2065051,31.56 Z M70.2425051,42 L70.2425051,32.73 L67.1285051,32.73 L67.1285051,42 L70.2425051,42 Z M76.0925051,42.216 C78.0005051,42.216 78.7745051,40.866 78.7745051,40.866 L78.8105051,40.866 C78.8105051,40.866 78.7967238,41.0451562 78.7932785,41.2828828 L78.7925051,42 L81.7085051,42 L81.7085051,29.13 L78.5945051,29.13 L78.5945051,32.838 C78.5945051,33.072 78.6125051,33.252 78.6125051,33.252 L78.5765051,33.252 C78.5765051,33.252 78.0185051,32.514 76.1465051,32.514 C73.6805051,32.514 71.9165051,34.422 71.9165051,37.356 C71.9165051,40.236 73.5725051,42.216 76.0925051,42.216 Z M76.8665051,39.642 C75.7865051,39.642 75.0485051,38.742 75.0485051,37.356 C75.0485051,35.934 75.8945051,35.142 76.8665051,35.142 C78.0905051,35.142 78.6845051,36.24 78.6845051,37.356 C78.6845051,38.958 77.8025051,39.642 76.8665051,39.642 Z M88.4405051,42.216 C90.9065051,42.216 92.4005051,40.866 92.4005051,40.866 L91.2485051,38.688 C91.2485051,38.688 90.0245051,39.624 88.6925051,39.624 C87.7025051,39.624 86.7665051,39.102 86.5325051,37.968 L92.3825051,37.968 C92.3825051,37.968 92.4545051,37.302 92.4545051,36.996 C92.4545051,34.422 90.9065051,32.514 88.1705051,32.514 C85.1825051,32.514 83.3465051,34.638 83.3465051,37.356 C83.3465051,39.822 85.1285051,42.216 88.4405051,42.216 Z M89.3225051,36.186 L86.6045051,36.186 C86.7665051,35.502 87.1985051,34.854 88.0985051,34.854 C88.8365051,34.854 89.3225051,35.484 89.3225051,36.186 Z" id="Rapide" fill="#333333"></path>
                            <g id="arrow-up-copy-2" transform="translate(14.000000, 35.500000) rotate(45.000000) translate(-14.000000, -35.500000) translate(5.000000, 26.000000)" fill="#32D88E">
                                <path d="M2.06353554,10.4222151 L1.19912876,9.53035034 C0.833118683,9.15271392 0.833118683,8.54206778 1.19912876,8.16844877 L8.76463495,0.358606116 C9.13064502,-0.0190303086 9.72249111,-0.0190303086 10.0846075,0.358606116 L17.6501136,8.16443136 C18.0161237,8.54206778 18.0161237,9.15271392 17.6501136,9.52633293 L16.7857069,10.4181977 C16.4158031,10.7998515 15.8122758,10.7918167 15.4501595,10.402128 L10.9840578,5.56516788 L10.9840578,17.1112007 C10.9840578,17.6455161 10.5674293,18.0753788 10.0495639,18.0753788 L8.80357219,18.0753788 C8.28570686,18.0753788 7.86907837,17.6455161 7.86907837,17.1112007 L7.86907837,5.56516788 L3.39908295,10.4061455 C3.0369666,10.7998515 2.43343934,10.8078863 2.06353554,10.4222151 Z" id="Path"></path>
                            </g>
                        </g>
                    </g>
                    <g id="Group-25" transform="translate(0.000000, 76.000000)">
                        <g id="Group-24" transform="translate(36.000000, 0.000000)">
                            <g id="Rectangle-Copy-2">
                                <use fill="black" fill-opacity="1" filter="url(#filter-20)" xlink:href="#path-19"></use>
                                <rect stroke="#F5F5F5" stroke-width="1" stroke-linejoin="square" fill="#FFFFFF" fill-rule="evenodd" x="0.5" y="0.5" width="349" height="79" rx="10"></rect>
                            </g>
                            <g id="Group-8" transform="translate(19.899495, 16.000000)" fill-rule="nonzero">
                                <path d="M13.7265051,15 L13.7265051,10.338 C13.7265051,9.708 13.6145051,8.63 13.6145051,8.63 L13.6425051,8.63 C13.6425051,8.63 14.0905051,9.68 14.4825051,10.338 L17.2685051,15 L19.7325051,15 L19.7325051,4.99 L17.2825051,4.99 L17.2825051,9.666 C17.2825051,10.296 17.3945051,11.374 17.3945051,11.374 L17.3665051,11.374 C17.3665051,11.374 16.9185051,10.324 16.5265051,9.666 L13.7545051,4.99 L11.2765051,4.99 L11.2765051,15 L13.7265051,15 Z M25.3605051,15.168 C27.6285051,15.168 29.4485051,13.67 29.4485051,11.416 C29.4485051,9.148 27.6285051,7.622 25.3465051,7.622 C23.0925051,7.622 21.2725051,9.148 21.2725051,11.416 C21.2725051,13.67 23.0925051,15.168 25.3605051,15.168 Z M25.3605051,13.152 C24.4785051,13.152 23.7225051,12.494 23.7225051,11.416 C23.7225051,10.324 24.4785051,9.638 25.3605051,9.638 C26.2425051,9.638 26.9985051,10.324 26.9985051,11.416 C26.9985051,12.494 26.2425051,13.152 25.3605051,13.152 Z M33.1305051,15 L33.1305051,12.018 C33.1305051,11.71 33.1445051,11.388 33.2005051,11.122 C33.3685051,10.352 33.7605051,9.82 34.5165051,9.82 C34.9785051,9.82 35.0765051,10.198 35.0765051,10.73 L35.0765051,15 L37.4985051,15 L37.4985051,12.018 C37.4985051,11.724 37.4985051,11.43 37.5545051,11.178 C37.7085051,10.38 38.1145051,9.82 38.8845051,9.82 C39.3465051,9.82 39.4445051,10.198 39.4445051,10.73 L39.4445051,15 L41.8665051,15 L41.8665051,10.324 C41.8665051,8.336 40.8445051,7.622 39.5285051,7.622 C38.4505051,7.622 37.5965051,8.238 37.2185051,8.84 L37.1905051,8.84 C36.8125051,8.028 36.0845051,7.622 35.1745051,7.622 C34.0405051,7.622 33.3685051,8.364 33.0325051,8.868 L33.0045051,8.868 C33.0045051,8.868 33.0325051,8.658 33.0325051,8.42 L33.0325051,7.79 L30.7085051,7.79 L30.7085051,15 L33.1305051,15 Z M47.8165051,15.168 C49.7345051,15.168 51.1765051,13.684 51.1765051,11.402 C51.1765051,9.162 49.8885051,7.622 47.9285051,7.622 C46.6545051,7.622 45.9825051,8.392 45.9825051,8.392 L45.9545051,8.392 C45.9545051,8.392 45.9825051,8.14 45.9825051,7.776 L45.9825051,4.99 L43.5605051,4.99 L43.5605051,15 L45.8285051,15 L45.8285051,14.762 C45.8285051,14.538 45.8145051,14.356 45.8145051,14.356 L45.8425051,14.356 C45.8425051,14.356 46.4865051,15.168 47.8165051,15.168 Z M47.3265051,13.166 C46.3745051,13.166 45.9125051,12.312 45.9125051,11.444 C45.9125051,10.198 46.5985051,9.666 47.3265051,9.666 C48.1665051,9.666 48.7405051,10.366 48.7405051,11.444 C48.7405051,12.55 48.0825051,13.166 47.3265051,13.166 Z M54.9005051,15 L54.9005051,12.27 C54.9005051,11.878 54.9425051,11.556 55.0265051,11.29 C55.3765051,10.212 56.3145051,10.03 56.8885051,10.03 C57.1825051,10.03 57.3785051,10.072 57.3785051,10.072 L57.3785051,7.692 L57.3370236,7.68474074 C57.2851717,7.67644444 57.1918384,7.664 57.0985051,7.664 C56.0205051,7.664 55.1105051,8.476 54.8025051,9.456 L54.7745051,9.456 C54.7745051,9.456 54.8025051,9.246 54.8025051,9.008 L54.8025051,7.79 L52.4785051,7.79 L52.4785051,15 L54.9005051,15 Z M61.9425051,15.168 C63.8605051,15.168 65.0225051,14.118 65.0225051,14.118 L64.1265051,12.424 C64.1265051,12.424 63.1745051,13.152 62.1385051,13.152 C61.3685051,13.152 60.6405051,12.746 60.4585051,11.864 L65.0085051,11.864 C65.0085051,11.864 65.0645051,11.346 65.0645051,11.108 C65.0645051,9.106 63.8605051,7.622 61.7325051,7.622 C59.4085051,7.622 57.9805051,9.274 57.9805051,11.388 C57.9805051,13.306 59.3665051,15.168 61.9425051,15.168 Z M62.6285051,10.478 L60.5145051,10.478 C60.6405051,9.946 60.9765051,9.442 61.6765051,9.442 C62.2505051,9.442 62.6285051,9.932 62.6285051,10.478 Z M72.3445051,15.168 C73.8285051,15.168 74.4305051,14.118 74.4305051,14.118 L74.4585051,14.118 C74.4585051,14.118 74.4482193,14.2517143 74.4452806,14.4309796 L74.4445051,15 L76.7125051,15 L76.7125051,4.99 L74.2905051,4.99 L74.2905051,7.874 C74.2905051,8.056 74.3045051,8.196 74.3045051,8.196 L74.2765051,8.196 C74.2765051,8.196 73.8425051,7.622 72.3865051,7.622 C70.4685051,7.622 69.0965051,9.106 69.0965051,11.388 C69.0965051,13.628 70.3845051,15.168 72.3445051,15.168 Z M72.9465051,13.166 C72.1065051,13.166 71.5325051,12.466 71.5325051,11.388 C71.5325051,10.282 72.1905051,9.666 72.9465051,9.666 C73.8985051,9.666 74.3605051,10.52 74.3605051,11.388 C74.3605051,12.634 73.6745051,13.166 72.9465051,13.166 Z M81.9485051,15.168 C83.8665051,15.168 85.0285051,14.118 85.0285051,14.118 L84.1325051,12.424 C84.1325051,12.424 83.1805051,13.152 82.1445051,13.152 C81.3745051,13.152 80.6465051,12.746 80.4645051,11.864 L85.0145051,11.864 C85.0145051,11.864 85.0705051,11.346 85.0705051,11.108 C85.0705051,9.106 83.8665051,7.622 81.7385051,7.622 C79.4145051,7.622 77.9865051,9.274 77.9865051,11.388 C77.9865051,13.306 79.3725051,15.168 81.9485051,15.168 Z M82.6345051,10.478 L80.5205051,10.478 C80.6465051,9.946 80.9825051,9.442 81.6825051,9.442 C82.2565051,9.442 82.6345051,9.932 82.6345051,10.478 Z M93.8485051,15.168 C95.7665051,15.168 97.2085051,13.684 97.2085051,11.402 C97.2085051,9.162 95.9205051,7.622 93.9605051,7.622 C92.6865051,7.622 92.0145051,8.392 92.0145051,8.392 L91.9865051,8.392 C91.9865051,8.392 92.0145051,8.14 92.0145051,7.776 L92.0145051,4.99 L89.5925051,4.99 L89.5925051,15 L91.8605051,15 L91.8605051,14.762 C91.8605051,14.538 91.8465051,14.356 91.8465051,14.356 L91.8745051,14.356 C91.8745051,14.356 92.5185051,15.168 93.8485051,15.168 Z M93.3585051,13.166 C92.4065051,13.166 91.9445051,12.312 91.9445051,11.444 C91.9445051,10.198 92.6305051,9.666 93.3585051,9.666 C94.1985051,9.666 94.7725051,10.366 94.7725051,11.444 C94.7725051,12.55 94.1145051,13.166 93.3585051,13.166 Z M100.904505,6.88 L100.904505,4.99 L98.5385051,4.99 L98.5385051,6.88 L100.904505,6.88 Z M100.932505,15 L100.932505,7.79 L98.5105051,7.79 L98.5105051,15 L100.932505,15 Z M106.168505,15.168 C108.086505,15.168 109.248505,14.118 109.248505,14.118 L108.352505,12.424 C108.352505,12.424 107.400505,13.152 106.364505,13.152 C105.594505,13.152 104.866505,12.746 104.684505,11.864 L109.234505,11.864 C109.234505,11.864 109.290505,11.346 109.290505,11.108 C109.290505,9.106 108.086505,7.622 105.958505,7.622 C103.634505,7.622 102.206505,9.274 102.206505,11.388 C102.206505,13.306 103.592505,15.168 106.168505,15.168 Z M106.854505,10.478 L104.740505,10.478 C104.866505,9.946 105.202505,9.442 105.902505,9.442 C106.476505,9.442 106.854505,9.932 106.854505,10.478 Z M113.028505,15 L113.028505,11.808 C113.028505,11.458 113.070505,11.136 113.168505,10.856 C113.378505,10.24 113.840505,9.82 114.596505,9.82 C115.128505,9.82 115.394505,10.1 115.394505,10.772 L115.394505,15 L117.816505,15 L117.816505,10.324 C117.816505,8.294 116.682505,7.622 115.226505,7.622 C113.952505,7.622 113.266505,8.308 112.930505,8.868 L112.902505,8.868 C112.902505,8.868 112.930505,8.658 112.930505,8.42 L112.930505,7.79 L110.606505,7.79 L110.606505,15 L113.028505,15 Z M121.834505,15.168 C123.696505,15.168 124.788505,14.118 124.788505,12.886 C124.788505,10.562 121.414505,10.478 121.414505,9.932 C121.414505,9.68 121.764505,9.582 122.128505,9.582 C123.136505,9.582 123.836505,10.17 123.836505,10.17 L124.662505,8.448 C124.662505,8.448 123.808505,7.622 122.128505,7.622 C120.462505,7.622 119.160505,8.462 119.160505,9.82 C119.160505,12.172 122.534505,12.242 122.534505,12.872 C122.534505,13.11 122.184505,13.208 121.820505,13.208 C120.784505,13.208 119.986505,12.48 119.986505,12.48 L118.950505,14.104 C118.950505,14.104 120.028505,15.168 121.834505,15.168 Z M133.342505,7.09 L132.208505,4.99 L129.814505,4.99 L131.466505,7.09 L133.342505,7.09 Z M131.214505,15.168 C132.726505,15.168 133.258505,14.118 133.258505,14.118 L133.286505,14.118 C133.286505,14.118 133.258505,14.328 133.258505,14.566 L133.258505,15 L135.470505,15 L135.470505,10.562 C135.470505,8.728 134.252505,7.622 132.222505,7.622 C130.444505,7.622 129.198505,8.56 129.198505,8.56 L130.038505,10.268 C130.038505,10.268 131.074505,9.582 131.984505,9.582 C132.586505,9.582 133.048505,9.778 133.048505,10.38 L133.048505,10.506 L132.950505,10.506 C131.830505,10.506 128.764505,10.744 128.764505,12.844 C128.764505,14.272 129.870505,15.168 131.214505,15.168 Z M131.886505,13.32 C131.410505,13.32 131.200505,13.054 131.200505,12.718 C131.200505,12.116 132.082505,11.892 132.852505,11.892 L133.076505,11.892 L133.076505,12.046 C133.076505,12.634 132.516505,13.32 131.886505,13.32 Z M144.878505,15 L147.328505,7.79 L144.766505,7.79 L143.660505,11.626 C143.520505,12.102 143.394505,12.872 143.394505,12.872 L143.366505,12.872 C143.366505,12.872 143.240505,12.088 143.100505,11.626 L141.980505,7.79 L139.432505,7.79 L141.924505,15 L144.878505,15 Z M151.668505,15.168 C153.586505,15.168 154.748505,14.118 154.748505,14.118 L153.852505,12.424 C153.852505,12.424 152.900505,13.152 151.864505,13.152 C151.094505,13.152 150.366505,12.746 150.184505,11.864 L154.734505,11.864 C154.734505,11.864 154.790505,11.346 154.790505,11.108 C154.790505,9.106 153.586505,7.622 151.458505,7.622 C149.134505,7.622 147.706505,9.274 147.706505,11.388 C147.706505,13.306 149.092505,15.168 151.668505,15.168 Z M152.354505,10.478 L150.240505,10.478 C150.366505,9.946 150.702505,9.442 151.402505,9.442 C151.976505,9.442 152.354505,9.932 152.354505,10.478 Z M158.528505,15 L158.528505,11.808 C158.528505,11.458 158.570505,11.136 158.668505,10.856 C158.878505,10.24 159.340505,9.82 160.096505,9.82 C160.628505,9.82 160.894505,10.1 160.894505,10.772 L160.894505,15 L163.316505,15 L163.316505,10.324 C163.316505,8.294 162.182505,7.622 160.726505,7.622 C159.452505,7.622 158.766505,8.308 158.430505,8.868 L158.402505,8.868 C158.402505,8.868 158.430505,8.658 158.430505,8.42 L158.430505,7.79 L156.106505,7.79 L156.106505,15 L158.528505,15 Z M167.768505,15.168 C169.252505,15.168 169.854505,14.118 169.854505,14.118 L169.882505,14.118 C169.882505,14.118 169.872219,14.2517143 169.869281,14.4309796 L169.868505,15 L172.136505,15 L172.136505,4.99 L169.714505,4.99 L169.714505,7.874 C169.714505,8.056 169.728505,8.196 169.728505,8.196 L169.700505,8.196 C169.700505,8.196 169.266505,7.622 167.810505,7.622 C165.892505,7.622 164.520505,9.106 164.520505,11.388 C164.520505,13.628 165.808505,15.168 167.768505,15.168 Z M168.370505,13.166 C167.530505,13.166 166.956505,12.466 166.956505,11.388 C166.956505,10.282 167.614505,9.666 168.370505,9.666 C169.322505,9.666 169.784505,10.52 169.784505,11.388 C169.784505,12.634 169.098505,13.166 168.370505,13.166 Z M176.350505,15 L176.350505,12.27 C176.350505,11.878 176.392505,11.556 176.476505,11.29 C176.826505,10.212 177.764505,10.03 178.338505,10.03 C178.632505,10.03 178.828505,10.072 178.828505,10.072 L178.828505,7.692 L178.787024,7.68474074 C178.735172,7.67644444 178.641838,7.664 178.548505,7.664 C177.470505,7.664 176.560505,8.476 176.252505,9.456 L176.224505,9.456 C176.224505,9.456 176.252505,9.246 176.252505,9.008 L176.252505,7.79 L173.928505,7.79 L173.928505,15 L176.350505,15 Z M183.392505,15.168 C185.310505,15.168 186.472505,14.118 186.472505,14.118 L185.576505,12.424 C185.576505,12.424 184.624505,13.152 183.588505,13.152 C182.818505,13.152 182.090505,12.746 181.908505,11.864 L186.458505,11.864 C186.458505,11.864 186.514505,11.346 186.514505,11.108 C186.514505,9.106 185.310505,7.622 183.182505,7.622 C180.858505,7.622 179.430505,9.274 179.430505,11.388 C179.430505,13.306 180.816505,15.168 183.392505,15.168 Z M184.078505,10.478 L181.964505,10.478 C182.090505,9.946 182.426505,9.442 183.126505,9.442 C183.700505,9.442 184.078505,9.932 184.078505,10.478 Z" id="Nombredebiensàvendre" fill="#333333"></path>
                                <path d="M41.6765051,42 L41.6765051,39.3 L38.9225051,39.3 L38.9225051,29.13 L36.2045051,29.13 L32.7305051,32.388 L34.5485051,34.332 L35.3225051,33.63 C35.6645051,33.306 35.8265051,32.946 35.8265051,32.946 L35.8625051,32.946 C35.8625051,32.946 35.8473801,33.3695 35.8448592,33.8144271 L35.8445051,39.3 L33.1085051,39.3 L33.1085051,42 L41.6765051,42 Z M47.0225051,42.216 C50.2445051,42.216 51.7925051,40.02 51.7925051,37.824 C51.7925051,36.024 50.5865051,34.512 48.6785051,34.098 L51.2885051,31.092 L51.2885051,29.13 L43.1705051,29.13 L43.1705051,31.83 L46.2485051,31.83 C47.0585051,31.83 47.4725051,31.74 47.4725051,31.74 L47.4725051,31.776 C47.4725051,31.776 46.9685051,32.244 46.3565051,32.982 L44.6645051,35.016 L45.3305051,36.546 L46.2305051,36.546 C47.6165051,36.546 48.6245051,36.96 48.6245051,37.968 C48.6245051,38.67 47.9585051,39.246 46.7885051,39.246 C45.2945051,39.246 44.1425051,38.094 44.1425051,38.094 L42.6305051,40.524 C42.6305051,40.524 44.1425051,42.216 47.0225051,42.216 Z M58.2185051,42.216 C61.4045051,42.216 62.9885051,40.254 62.9885051,38.292 C62.9885051,36.996 62.3405051,36.168 61.4765051,35.574 C61.6025051,35.412 62.7365051,34.026 62.7365051,32.64 C62.7365051,30.246 60.7745051,28.914 58.3805051,28.914 C55.3745051,28.914 54.0605051,30.75 54.0605051,32.622 C54.0605051,33.72 54.5465051,34.494 55.2305051,35.088 C54.8345051,35.394 53.4485051,36.564 53.4485051,38.22 C53.4485051,40.272 55.0865051,42.216 58.2185051,42.216 Z M59.2085051,34.458 C58.0745051,33.972 57.1385051,33.54 57.1385051,32.694 C57.1385051,32.136 57.4985051,31.686 58.3085051,31.686 C59.1545051,31.686 59.6585051,32.154 59.6585051,32.874 C59.6585051,33.666 59.3165051,34.26 59.2085051,34.458 Z M58.2185051,39.444 C57.3545051,39.444 56.6705051,38.778 56.6705051,37.95 C56.6705051,37.248 57.0485051,36.708 57.3545051,36.384 C58.6145051,36.96 59.7665051,37.392 59.7665051,38.13 C59.7665051,38.976 59.1725051,39.444 58.2185051,39.444 Z" id="138" fill="#333333"></path>
                                <g id="arrow-up" transform="translate(14.000000, 36.000000) rotate(45.000000) translate(-14.000000, -36.000000) translate(5.000000, 26.500000)" fill="#32D88E">
                                    <path d="M2.06353554,10.4222151 L1.19912876,9.53035034 C0.833118683,9.15271392 0.833118683,8.54206778 1.19912876,8.16844877 L8.76463495,0.358606116 C9.13064502,-0.0190303086 9.72249111,-0.0190303086 10.0846075,0.358606116 L17.6501136,8.16443136 C18.0161237,8.54206778 18.0161237,9.15271392 17.6501136,9.52633293 L16.7857069,10.4181977 C16.4158031,10.7998515 15.8122758,10.7918167 15.4501595,10.402128 L10.9840578,5.56516788 L10.9840578,17.1112007 C10.9840578,17.6455161 10.5674293,18.0753788 10.0495639,18.0753788 L8.80357219,18.0753788 C8.28570686,18.0753788 7.86907837,17.6455161 7.86907837,17.1112007 L7.86907837,5.56516788 L3.39908295,10.4061455 C3.0369666,10.7998515 2.43343934,10.8078863 2.06353554,10.4222151 Z" id="Path"></path>
                                </g>
                            </g>
                        </g>
                        <g id="Group-6" transform="translate(0.000000, 70.000000)">
                            <path d="M15,8.0003147 L58.2460408,8.0003147 C59.3814312,8.0003147 60.4830137,7.61388857 61.369591,6.90459881 L70,0 L70,0 L78.630409,6.90459881 C79.5169863,7.61388857 80.6185688,8.0003147 81.7539592,8.0003147 L125,8.0003147 C127.761424,8.0003147 130,10.2388909 130,13.0003147 L130,43 C130,45.7614237 127.761424,48 125,48 L15,48 C12.2385763,48 10,45.7614237 10,43 L10,13.0003147 C10,10.2388909 12.2385763,8.0003147 15,8.0003147 Z" id="Rectangle" fill="#32D88E"></path>
                            <path d="M28.056,32 L28.056,28.556 L31.178,28.556 L31.178,27.464 L28.056,27.464 L28.056,24.02 L26.908,24.02 L26.908,27.464 L23.772,27.464 L23.772,28.556 L26.908,28.556 L26.908,32 L28.056,32 Z M35.952,32.168 C37.954,32.168 39.452,30.74 39.452,28.836 C39.452,27.058 38.094,25.616 36.008,25.616 C35.28,25.616 34.734,25.924 34.734,25.924 L34.706,25.924 C34.706,25.924 34.762,25.7 34.776,25.406 L35.014,23.32 L38.794,23.32 L38.794,22.116 L33.81,22.116 L33.32,27.016 L34.118,27.31 C34.118,27.31 34.818,26.82 35.784,26.82 C37.058,26.82 38.038,27.66 38.038,28.85 C38.038,30.054 37.03,30.852 35.868,30.852 C34.468,30.852 33.698,29.788 33.698,29.788 L32.928,30.796 C32.928,30.796 33.922,32.168 35.952,32.168 Z M42.924,26.092 C44.1,26.092 45.052,25.168 45.052,24.02 C45.052,22.886 44.1,21.948 42.924,21.948 C41.748,21.948 40.81,22.886 40.81,24.02 C40.81,25.168 41.748,26.092 42.924,26.092 Z M42.336,32 L49.896,22.116 L48.58,22.116 L41.02,32 L42.336,32 Z M42.924,25.056 C42.336,25.056 41.888,24.608 41.888,24.02 C41.888,23.446 42.336,22.97 42.924,22.97 C43.512,22.97 43.96,23.446 43.96,24.02 C43.96,24.608 43.512,25.056 42.924,25.056 Z M48.006,32.168 C49.168,32.168 50.134,31.244 50.134,30.096 C50.134,28.962 49.168,28.024 48.006,28.024 C46.816,28.024 45.878,28.962 45.878,30.096 C45.878,31.244 46.816,32.168 48.006,32.168 Z M48.006,31.132 C47.418,31.132 46.97,30.684 46.97,30.096 C46.97,29.522 47.418,29.046 48.006,29.046 C48.58,29.046 49.042,29.522 49.042,30.096 C49.042,30.684 48.58,31.132 48.006,31.132 Z M58.716,32.168 C60.41,32.168 61.46,31.16 61.46,31.16 L60.9,30.166 C60.9,30.166 60.018,30.992 58.8,30.992 C57.54,30.992 56.434,30.208 56.364,28.654 L61.53,28.654 C61.53,28.654 61.572,28.248 61.572,28.066 C61.572,26.232 60.508,24.748 58.506,24.748 C56.49,24.748 54.964,26.204 54.964,28.458 C54.964,30.558 56.49,32.168 58.716,32.168 Z M60.186,27.632 L56.406,27.632 C56.602,26.47 57.442,25.826 58.478,25.826 C59.388,25.826 60.144,26.414 60.186,27.632 Z M64.582,32 L64.582,28.682 C64.582,28.332 64.61,28.01 64.694,27.73 C64.988,26.708 65.856,25.994 66.934,25.994 C68.068,25.994 68.278,26.778 68.278,27.772 L68.278,32 L69.636,32 L69.636,27.464 C69.636,25.658 68.866,24.748 67.2,24.748 C65.66,24.748 64.82,25.756 64.54,26.372 L64.512,26.372 C64.512,26.372 64.54,26.134 64.54,25.854 L64.54,24.916 L63.224,24.916 L63.224,32 L64.582,32 Z M76.832,32 L81.298,23.068 L81.298,22.116 L74.69,22.116 L74.69,23.32 L79.1,23.32 C79.604,23.32 79.828,23.278 79.828,23.278 L79.828,23.306 C79.828,23.306 79.534,23.656 79.254,24.216 L75.404,32 L76.832,32 Z M87.626,23.502 L87.626,22.116 L86.254,22.116 L86.254,23.502 L87.626,23.502 Z M87.612,32.238 L87.612,24.916 L86.268,24.916 L86.268,32.154 C86.268,33.54 85.26,33.708 84.742,33.708 C84.56,33.708 84.434,33.694 84.434,33.694 L84.434,34.856 C84.434,34.856 84.616,34.884 84.91,34.884 C85.792,34.884 87.612,34.604 87.612,32.238 Z M93.044,32.168 C95.158,32.168 96.866,30.6 96.866,28.444 C96.866,26.302 95.158,24.748 93.044,24.748 C90.93,24.748 89.222,26.302 89.222,28.444 C89.222,30.6 90.93,32.168 93.044,32.168 Z M93.044,30.992 C91.714,30.992 90.608,29.928 90.608,28.444 C90.608,26.974 91.714,25.924 93.044,25.924 C94.388,25.924 95.48,26.974 95.48,28.444 C95.48,29.928 94.388,30.992 93.044,30.992 Z M100.8,32.168 C102.186,32.168 103.11,31.244 103.404,30.544 L103.432,30.544 C103.432,30.544 103.404,30.768 103.404,31.062 L103.404,32 L104.72,32 L104.72,24.916 L103.362,24.916 L103.362,28.234 C103.362,29.634 102.508,30.908 101.066,30.908 C99.932,30.908 99.736,30.124 99.736,29.144 L99.736,24.916 L98.378,24.916 L98.378,29.452 C98.378,31.328 99.204,32.168 100.8,32.168 Z M108.206,32 L108.206,29.102 C108.206,28.668 108.248,28.234 108.374,27.828 C108.696,26.778 109.494,26.162 110.362,26.162 C110.572,26.162 110.754,26.204 110.754,26.204 L110.754,24.86 C110.754,24.86 110.586,24.832 110.404,24.832 C109.312,24.832 108.486,25.644 108.164,26.68 L108.136,26.68 C108.136,26.68 108.164,26.442 108.164,26.148 L108.164,24.916 L106.848,24.916 L106.848,32 L108.206,32 Z M114.212,32.168 C115.766,32.168 116.774,31.286 116.774,30.11 C116.774,27.786 113.134,28.066 113.134,26.792 C113.134,26.176 113.708,25.924 114.296,25.924 C115.416,25.924 116.046,26.554 116.046,26.554 L116.592,25.532 L116.570062,25.510048 C116.43814,25.38304 115.7086,24.748 114.31,24.748 C112.896,24.748 111.748,25.476 111.748,26.764 C111.748,29.074 115.388,28.808 115.388,30.11 C115.388,30.684 114.8,30.992 114.212,30.992 C112.98,30.992 112.182,30.166 112.182,30.166 L111.524,31.132 C111.524,31.132 112.476,32.168 114.212,32.168 Z" id="+5%en7jours" fill="#FFFFFF" fill-rule="nonzero"></path>
                        </g>
                    </g>
                </g>
            </g>
        </g>
    </g>
</svg>