<?xml version="1.0" encoding="UTF-8"?>
<svg width="575px" height="502px" viewBox="0 0 575 502" version="1.1" xmlns="http://www.w3.org/2000/svg" xmlns:xlink="http://www.w3.org/1999/xlink">
    <!-- Generator: Sketch 63.1 (92452) - https://sketch.com -->
    <title>Group 15</title>
    <desc>Created with Sketch.</desc>
    <defs>
        <rect id="path-1" x="249" y="402" width="140" height="40" rx="10"></rect>
        <filter x="-21.4%" y="-75.0%" width="142.9%" height="250.0%" filterUnits="objectBoundingBox" id="filter-2">
            <feOffset dx="0" dy="0" in="SourceAlpha" result="shadowOffsetOuter1"></feOffset>
            <feGaussianBlur stdDeviation="10" in="shadowOffsetOuter1" result="shadowBlurOuter1"></feGaussianBlur>
            <feComposite in="shadowBlurOuter1" in2="SourceAlpha" operator="out" result="shadowBlurOuter1"></feComposite>
            <feColorMatrix values="0 0 0 0 0.329411765   0 0 0 0 0.403921569   0 0 0 0 0.490196078  0 0 0 0.0563009511 0" type="matrix" in="shadowBlurOuter1"></feColorMatrix>
        </filter>
        <rect id="path-3" x="12" y="118" width="140" height="40" rx="10"></rect>
        <filter x="-21.4%" y="-75.0%" width="142.9%" height="250.0%" filterUnits="objectBoundingBox" id="filter-4">
            <feOffset dx="0" dy="0" in="SourceAlpha" result="shadowOffsetOuter1"></feOffset>
            <feGaussianBlur stdDeviation="10" in="shadowOffsetOuter1" result="shadowBlurOuter1"></feGaussianBlur>
            <feComposite in="shadowBlurOuter1" in2="SourceAlpha" operator="out" result="shadowBlurOuter1"></feComposite>
            <feColorMatrix values="0 0 0 0 0.329411765   0 0 0 0 0.403921569   0 0 0 0 0.490196078  0 0 0 0.0563009511 0" type="matrix" in="shadowBlurOuter1"></feColorMatrix>
        </filter>
        <rect id="path-5" x="0" y="323" width="160" height="40" rx="10"></rect>
        <filter x="-18.8%" y="-75.0%" width="137.5%" height="250.0%" filterUnits="objectBoundingBox" id="filter-6">
            <feOffset dx="0" dy="0" in="SourceAlpha" result="shadowOffsetOuter1"></feOffset>
            <feGaussianBlur stdDeviation="10" in="shadowOffsetOuter1" result="shadowBlurOuter1"></feGaussianBlur>
            <feComposite in="shadowBlurOuter1" in2="SourceAlpha" operator="out" result="shadowBlurOuter1"></feComposite>
            <feColorMatrix values="0 0 0 0 0.329411765   0 0 0 0 0.403921569   0 0 0 0 0.490196078  0 0 0 0.0563009511 0" type="matrix" in="shadowBlurOuter1"></feColorMatrix>
        </filter>
    </defs>
    <g id="Page-1" stroke="none" stroke-width="1" fill="none" fill-rule="evenodd">
        <g id="Simulateur-de-faisabilité-(non-rempli)" transform="translate(-676.000000, -931.000000)">
            <g id="Group-15" transform="translate(696.000000, 932.000000)">
                <g id="Group-12">
                    <circle id="Oval" stroke="#F5F6FA" stroke-width="2" cx="304" cy="250" r="250"></circle>
                    <circle id="Oval" fill="#F5F6FA" opacity="0.5" cx="304" cy="250" r="175"></circle>
                    <circle id="Oval" fill="#F5F6FA" cx="304" cy="250" r="100"></circle>
                    <path d="M253.7,255 L253.7,242.13 L250.55,242.13 L250.55,255 L253.7,255 Z M259.478,255 L259.478,251.166 C259.478,250.77 259.496,250.356 259.568,250.014 C259.784,249.024 260.288,248.34 261.26,248.34 C261.854,248.34 261.98,248.826 261.98,249.51 L261.98,255 L265.094,255 L265.094,251.166 C265.094,250.788 265.094,250.41 265.166,250.086 C265.364,249.06 265.886,248.34 266.876,248.34 C267.47,248.34 267.596,248.826 267.596,249.51 L267.596,255 L270.71,255 L270.71,248.988 C270.71,246.432 269.396,245.514 267.704,245.514 C266.318,245.514 265.22,246.306 264.734,247.08 L264.698,247.08 C264.212,246.036 263.276,245.514 262.106,245.514 C260.648,245.514 259.784,246.468 259.352,247.116 L259.316,247.116 C259.316,247.116 259.352,246.846 259.352,246.54 L259.352,245.73 L256.364,245.73 L256.364,255 L259.478,255 Z M276.002,255 L276.002,251.166 C276.002,250.77 276.02,250.356 276.092,250.014 C276.308,249.024 276.812,248.34 277.784,248.34 C278.378,248.34 278.504,248.826 278.504,249.51 L278.504,255 L281.618,255 L281.618,251.166 C281.618,250.788 281.618,250.41 281.69,250.086 C281.888,249.06 282.41,248.34 283.4,248.34 C283.994,248.34 284.12,248.826 284.12,249.51 L284.12,255 L287.234,255 L287.234,248.988 C287.234,246.432 285.92,245.514 284.228,245.514 C282.842,245.514 281.744,246.306 281.258,247.08 L281.222,247.08 C280.736,246.036 279.8,245.514 278.63,245.514 C277.172,245.514 276.308,246.468 275.876,247.116 L275.84,247.116 C275.84,247.116 275.876,246.846 275.876,246.54 L275.876,245.73 L272.888,245.73 L272.888,255 L276.002,255 Z M293.984,255.216 C296.9,255.216 299.24,253.29 299.24,250.392 C299.24,247.476 296.9,245.514 293.966,245.514 C291.068,245.514 288.728,247.476 288.728,250.392 C288.728,253.29 291.068,255.216 293.984,255.216 Z M293.984,252.624 C292.85,252.624 291.878,251.778 291.878,250.392 C291.878,248.988 292.85,248.106 293.984,248.106 C295.118,248.106 296.09,248.988 296.09,250.392 C296.09,251.778 295.118,252.624 293.984,252.624 Z M304.964,255.216 C307.862,255.216 309.5,253.362 309.5,251.22 C309.5,247.152 303.704,247.44 303.704,245.82 C303.704,245.1 304.424,244.812 305.072,244.812 C306.62,244.812 307.916,245.946 307.916,245.946 L309.248,243.372 C309.248,243.372 307.88,241.914 305.108,241.914 C302.552,241.914 300.554,243.48 300.554,245.856 C300.554,249.816 306.35,249.762 306.35,251.292 C306.35,252.066 305.648,252.318 305,252.318 C303.38,252.318 301.922,250.986 301.922,250.986 L300.266,253.38 C300.266,253.38 301.94,255.216 304.964,255.216 Z M315.782,255.216 C318.374,255.216 319.76,253.686 319.76,253.686 L318.626,251.508 C318.626,251.508 317.384,252.624 316.088,252.624 C314.522,252.624 313.766,251.418 313.766,250.32 C313.766,249.222 314.504,248.106 315.98,248.106 C317.258,248.106 318.158,249.006 318.158,249.006 L319.472,246.918 C319.472,246.918 318.302,245.514 315.782,245.514 C312.452,245.514 310.616,247.872 310.616,250.356 C310.616,252.912 312.47,255.216 315.782,255.216 Z M323.666,255.216 C325.61,255.216 326.294,253.866 326.294,253.866 L326.33,253.866 C326.33,253.866 326.294,254.136 326.294,254.442 L326.294,255 L329.138,255 L329.138,249.294 C329.138,246.936 327.572,245.514 324.962,245.514 C322.676,245.514 321.074,246.72 321.074,246.72 L322.154,248.916 C322.154,248.916 323.486,248.034 324.656,248.034 C325.43,248.034 326.024,248.286 326.024,249.06 L326.024,249.222 L325.898,249.222 C324.458,249.222 320.516,249.528 320.516,252.228 C320.516,254.064 321.938,255.216 323.666,255.216 Z M324.53,252.84 C323.918,252.84 323.648,252.498 323.648,252.066 C323.648,251.292 324.782,251.004 325.772,251.004 L326.06,251.004 L326.06,251.202 C326.06,251.958 325.34,252.84 324.53,252.84 Z M334.412,255 L334.412,250.896 C334.412,250.446 334.466,250.032 334.592,249.672 C334.862,248.88 335.456,248.34 336.428,248.34 C337.112,248.34 337.454,248.7 337.454,249.564 L337.454,255 L340.568,255 L340.568,248.988 C340.568,246.378 339.11,245.514 337.238,245.514 C335.6,245.514 334.718,246.396 334.286,247.116 L334.25,247.116 C334.25,247.116 334.286,246.846 334.286,246.54 L334.286,245.73 L331.298,245.73 L331.298,255 L334.412,255 Z M351.854,250.176 L352.07,247.044 C352.088,246.774 352.052,246.468 352.052,246.468 L352.088,246.468 L353.006,248.718 L354.77,248.718 L355.688,246.468 L355.724,246.468 C355.724,246.468 355.688,246.774 355.706,247.044 L355.886,250.176 L358.172,250.176 L357.578,242.13 L355.454,242.13 L354.14,245.28 C354.032,245.55 353.906,246.072 353.906,246.072 L353.87,246.072 C353.87,246.072 353.744,245.55 353.636,245.28 L352.322,242.13 L350.198,242.13 L349.568,250.176 L351.854,250.176 Z M346.706,250.176 L346.706,244.092 L349.226,244.092 L349.226,242.13 L341.882,242.13 L341.882,244.092 L344.438,244.092 L344.438,250.176 L346.706,250.176 Z" id="ImmoScan™" fill="#F5AFD7" fill-rule="nonzero"></path>
                    <g id="Rectangle-Copy-7">
                        <use fill="black" fill-opacity="1" filter="url(#filter-2)" xlink:href="#path-1"></use>
                        <rect stroke="#F5F5F5" stroke-width="1" stroke-linejoin="square" fill="#F5AFD7" fill-rule="evenodd" x="249.5" y="402.5" width="139" height="39" rx="10"></rect>
                    </g>
                    <path d="M292.873,426 L293.475,423.9 L296.597,423.9 L297.213,426 L299.733,426 L296.331,415.99 L293.755,415.99 L290.353,426 L292.873,426 Z M296.023,421.94 L294.049,421.94 L294.623,419.994 C294.805,419.364 295.029,418.272 295.029,418.272 L295.057,418.272 C295.057,418.272 295.281,419.364 295.463,419.994 L296.023,421.94 Z M303.135,426.07 C303.527,426.07 303.863,426.028 303.863,426.028 L303.863,423.928 C303.863,423.928 303.723,423.942 303.569,423.942 C303.023,423.942 302.897,423.704 302.897,423.018 L302.897,415.99 L300.475,415.99 L300.475,423.34 C300.475,425.762 301.847,426.07 303.135,426.07 Z M308.035,428.94 C310.009,428.94 312.109,427.974 312.109,425.342 L312.109,418.79 L309.841,418.79 L309.841,419.154 C309.841,419.238 309.855,419.322 309.855,419.322 L309.813,419.322 L309.786214,419.295214 C309.65217,419.166983 309.014176,418.622 307.853,418.622 C305.669,418.622 304.619,420.33 304.619,422.164 C304.619,424.012 305.697,425.79 307.867,425.79 C308.707,425.79 309.253,425.538 309.673,425.034 L309.701,425.034 C309.701,425.034 309.687,425.216 309.687,425.3 L309.687,425.538 C309.687,426.602 308.889,426.924 308.021,426.924 C306.887,426.924 305.991,426.462 305.991,426.462 L305.305,428.296 C306.005,428.66 307.069,428.94 308.035,428.94 Z M308.441,423.774 C307.475,423.774 307.055,422.976 307.055,422.08 C307.055,421.254 307.489,420.638 308.343,420.638 C309.071,420.638 309.743,420.918 309.743,422.192 C309.743,423.452 309.071,423.774 308.441,423.774 Z M317.457,426.168 C319.725,426.168 321.545,424.67 321.545,422.416 C321.545,420.148 319.725,418.622 317.443,418.622 C315.189,418.622 313.369,420.148 313.369,422.416 C313.369,424.67 315.189,426.168 317.457,426.168 Z M317.457,424.152 C316.575,424.152 315.819,423.494 315.819,422.416 C315.819,421.324 316.575,420.638 317.457,420.638 C318.339,420.638 319.095,421.324 319.095,422.416 C319.095,423.494 318.339,424.152 317.457,424.152 Z M325.227,426 L325.227,423.27 C325.227,422.878 325.269,422.556 325.353,422.29 C325.703,421.212 326.641,421.03 327.215,421.03 C327.509,421.03 327.705,421.072 327.705,421.072 L327.705,418.692 L327.663519,418.684741 C327.611667,418.676444 327.518333,418.664 327.425,418.664 C326.347,418.664 325.437,419.476 325.129,420.456 L325.101,420.456 C325.101,420.456 325.129,420.246 325.129,420.008 L325.129,418.79 L322.805,418.79 L322.805,426 L325.227,426 Z M331.219,417.88 L331.219,415.99 L328.853,415.99 L328.853,417.88 L331.219,417.88 Z M331.247,426 L331.247,418.79 L328.825,418.79 L328.825,426 L331.247,426 Z M336.777,426.07 C337.169,426.07 337.435,426.028 337.435,426.028 L337.435,423.928 C337.435,423.928 337.309,423.942 337.113,423.942 C336.651,423.942 335.825,423.83 335.825,423.018 L335.825,420.806 L337.337,420.806 L337.337,418.916 L335.825,418.916 L335.825,416.844 L333.473,416.844 L333.473,418.916 L332.479,418.916 L332.479,420.806 L333.403,420.806 L333.403,423.34 C333.403,425.762 335.629,426.07 336.777,426.07 Z M341.271,426 L341.271,422.808 C341.271,422.472 341.299,422.164 341.397,421.884 C341.607,421.254 342.097,420.82 342.839,420.82 C343.371,420.82 343.637,421.1 343.637,421.772 L343.637,426 L346.059,426 L346.059,421.324 C346.059,419.294 344.925,418.622 343.469,418.622 C342.517,418.622 341.677,419.056 341.271,419.77 L341.243,419.77 C341.243,419.77 341.265123,419.570889 341.27004,419.270993 L341.271,415.99 L338.849,415.99 L338.849,426 L341.271,426 Z M350.175,426 L350.175,423.018 C350.175,422.71 350.189,422.388 350.245,422.122 C350.413,421.352 350.805,420.82 351.561,420.82 C352.023,420.82 352.121,421.198 352.121,421.73 L352.121,426 L354.543,426 L354.543,423.018 C354.543,422.724 354.543,422.43 354.599,422.178 C354.753,421.38 355.159,420.82 355.929,420.82 C356.391,420.82 356.489,421.198 356.489,421.73 L356.489,426 L358.911,426 L358.911,421.324 C358.911,419.336 357.889,418.622 356.573,418.622 C355.495,418.622 354.641,419.238 354.263,419.84 L354.235,419.84 C353.857,419.028 353.129,418.622 352.219,418.622 C351.085,418.622 350.413,419.364 350.077,419.868 L350.049,419.868 C350.049,419.868 350.077,419.658 350.077,419.42 L350.077,418.79 L347.753,418.79 L347.753,426 L350.175,426 Z M364.049,426.168 C365.967,426.168 367.129,425.118 367.129,425.118 L366.233,423.424 C366.233,423.424 365.281,424.152 364.245,424.152 C363.475,424.152 362.747,423.746 362.565,422.864 L367.115,422.864 C367.115,422.864 367.171,422.346 367.171,422.108 C367.171,420.106 365.967,418.622 363.839,418.622 C361.515,418.622 360.087,420.274 360.087,422.388 C360.087,424.306 361.473,426.168 364.049,426.168 Z M364.735,421.478 L362.621,421.478 C362.747,420.946 363.083,420.442 363.783,420.442 C364.357,420.442 364.735,420.932 364.735,421.478 Z" id="Algorithme" fill="#FFFFFF" fill-rule="nonzero"></path>
                    <g id="Rectangle-Copy-5">
                        <use fill="black" fill-opacity="1" filter="url(#filter-4)" xlink:href="#path-3"></use>
                        <rect stroke="#F5F5F5" stroke-width="1" stroke-linejoin="square" fill="#F5AFD7" fill-rule="evenodd" x="12.5" y="118.5" width="139" height="39" rx="10"></rect>
                    </g>
                    <path d="M59.346,142 L59.346,134.09 L62.384,134.09 L62.384,131.99 L53.858,131.99 L53.858,134.09 L56.896,134.09 L56.896,142 L59.346,142 Z M66.78,142.168 C68.698,142.168 69.86,141.118 69.86,141.118 L68.964,139.424 C68.964,139.424 68.012,140.152 66.976,140.152 C66.206,140.152 65.478,139.746 65.296,138.864 L69.846,138.864 C69.846,138.864 69.902,138.346 69.902,138.108 C69.902,136.106 68.698,134.622 66.57,134.622 C64.246,134.622 62.818,136.274 62.818,138.388 C62.818,140.306 64.204,142.168 66.78,142.168 Z M67.466,137.478 L65.352,137.478 C65.478,136.946 65.814,136.442 66.514,136.442 C67.088,136.442 67.466,136.932 67.466,137.478 Z M73.64,142 L73.64,139.018 C73.64,138.71 73.654,138.388 73.71,138.122 C73.878,137.352 74.27,136.82 75.026,136.82 C75.488,136.82 75.586,137.198 75.586,137.73 L75.586,142 L78.008,142 L78.008,139.018 C78.008,138.724 78.008,138.43 78.064,138.178 C78.218,137.38 78.624,136.82 79.394,136.82 C79.856,136.82 79.954,137.198 79.954,137.73 L79.954,142 L82.376,142 L82.376,137.324 C82.376,135.336 81.354,134.622 80.038,134.622 C78.96,134.622 78.106,135.238 77.728,135.84 L77.7,135.84 C77.322,135.028 76.594,134.622 75.684,134.622 C74.55,134.622 73.878,135.364 73.542,135.868 L73.514,135.868 C73.514,135.868 73.542,135.658 73.542,135.42 L73.542,134.79 L71.218,134.79 L71.218,142 L73.64,142 Z M86.492,144.8 L86.492,142.098 C86.492,141.734 86.464,141.482 86.464,141.482 L86.492,141.482 C86.492,141.482 87.15,142.168 88.326,142.168 C90.244,142.168 91.686,140.684 91.686,138.402 C91.686,136.162 90.398,134.622 88.438,134.622 C86.912,134.622 86.254,135.616 86.254,135.616 L86.226,135.616 C86.226,135.616 86.254,135.392 86.254,135.154 L86.254,134.79 L84.07,134.79 L84.07,144.8 L86.492,144.8 Z M87.836,140.166 C86.884,140.166 86.422,139.312 86.422,138.444 C86.422,137.198 87.108,136.666 87.836,136.666 C88.676,136.666 89.25,137.366 89.25,138.444 C89.25,139.55 88.592,140.166 87.836,140.166 Z M95.312,142.168 C97.174,142.168 98.266,141.118 98.266,139.886 C98.266,137.562 94.892,137.478 94.892,136.932 C94.892,136.68 95.242,136.582 95.606,136.582 C96.614,136.582 97.314,137.17 97.314,137.17 L98.14,135.448 C98.14,135.448 97.286,134.622 95.606,134.622 C93.94,134.622 92.638,135.462 92.638,136.82 C92.638,139.172 96.012,139.242 96.012,139.872 C96.012,140.11 95.662,140.208 95.298,140.208 C94.262,140.208 93.464,139.48 93.464,139.48 L92.428,141.104 C92.428,141.104 93.506,142.168 95.312,142.168 Z M105.21,142 L105.21,139.27 C105.21,138.878 105.252,138.556 105.336,138.29 C105.686,137.212 106.624,137.03 107.198,137.03 C107.492,137.03 107.688,137.072 107.688,137.072 L107.688,134.692 L107.646519,134.684741 C107.594667,134.676444 107.501333,134.664 107.408,134.664 C106.33,134.664 105.42,135.476 105.112,136.456 L105.084,136.456 C105.084,136.456 105.112,136.246 105.112,136.008 L105.112,134.79 L102.788,134.79 L102.788,142 L105.21,142 Z M112.854,134.09 L114.506,131.99 L112.112,131.99 L110.978,134.09 L112.854,134.09 Z M112.252,142.168 C114.17,142.168 115.332,141.118 115.332,141.118 L114.436,139.424 C114.436,139.424 113.484,140.152 112.448,140.152 C111.678,140.152 110.95,139.746 110.768,138.864 L115.318,138.864 C115.318,138.864 115.374,138.346 115.374,138.108 C115.374,136.106 114.17,134.622 112.042,134.622 C109.718,134.622 108.29,136.274 108.29,138.388 C108.29,140.306 109.676,142.168 112.252,142.168 Z M112.938,137.478 L110.824,137.478 C110.95,136.946 111.286,136.442 111.986,136.442 C112.56,136.442 112.938,136.932 112.938,137.478 Z M120.134,142.168 C122.052,142.168 123.214,141.118 123.214,141.118 L122.318,139.424 C122.318,139.424 121.366,140.152 120.33,140.152 C119.56,140.152 118.832,139.746 118.65,138.864 L123.2,138.864 C123.2,138.864 123.256,138.346 123.256,138.108 C123.256,136.106 122.052,134.622 119.924,134.622 C117.6,134.622 116.172,136.274 116.172,138.388 C116.172,140.306 117.558,142.168 120.134,142.168 Z M120.82,137.478 L118.706,137.478 C118.832,136.946 119.168,136.442 119.868,136.442 C120.442,136.442 120.82,136.932 120.82,137.478 Z M127.134,142.07 C127.526,142.07 127.862,142.028 127.862,142.028 L127.862,139.928 C127.862,139.928 127.722,139.942 127.568,139.942 C127.022,139.942 126.896,139.704 126.896,139.018 L126.896,131.99 L124.474,131.99 L124.474,139.34 C124.474,141.762 125.846,142.07 127.134,142.07 Z" id="Tempsréel" fill="#FFFFFF" fill-rule="nonzero"></path>
                    <g id="history" transform="translate(33.000000, 131.000000)" fill="#FFFFFF" fill-rule="nonzero">
                        <path d="M13.9999879,6.98677348 C14.0071169,10.843554 10.861836,13.9972849 7.00506852,14 C5.33932544,14.0011801 3.80926357,13.4205178 2.60687452,12.4500848 C2.2942178,12.1977457 2.27084688,11.7291683 2.55496735,11.4450469 L2.87298696,11.1270262 C3.11598251,10.8840298 3.50391732,10.8574411 3.7731346,11.0710261 C4.659,11.773991 5.78009887,12.1935683 6.99998788,12.1935683 C9.87068856,12.1935683 12.1935273,9.87027011 12.1935273,7.0000114 C12.1935273,4.12930108 9.87023695,1.80645456 6.99998788,1.80645456 C5.62217575,1.80645456 4.37078679,2.34187075 3.44162308,3.21582782 L4.87419318,4.64840273 C5.15870881,4.93291933 4.95720513,5.41936367 4.55487518,5.41936367 L0.451612122,5.41936367 C0.202181102,5.41936367 0,5.21718189 0,4.96775003 L0,0.864473182 C0,0.462141882 0.486442706,0.260637521 0.770958343,0.545125888 L2.16452045,1.93869267 C3.42121585,0.737710879 5.12444274,0 6.99998788,0 C10.8615538,0 13.9928347,3.12685993 13.9999879,6.98677348 Z M8.89359751,9.21051904 L9.17085913,8.85402652 C9.40056034,8.55869943 9.34735479,8.1330818 9.05202869,7.90340804 L7.90321213,7.00986223 L7.90321213,4.06452275 C7.90321213,3.69038908 7.59992636,3.38710229 7.22579395,3.38710229 L6.77418182,3.38710229 C6.40004941,3.38710229 6.09676364,3.69038908 6.09676364,4.06452275 L6.09676364,7.89338786 L7.94298222,9.32934988 C8.23830832,9.55902364 8.6638963,9.50584613 8.89359751,9.21051904 L8.89359751,9.21051904 Z" id="Shape"></path>
                    </g>
                    <g id="Rectangle-Copy-6">
                        <use fill="black" fill-opacity="1" filter="url(#filter-6)" xlink:href="#path-5"></use>
                        <rect stroke="#F5F5F5" stroke-width="1" stroke-linejoin="square" fill="#F5AFD7" fill-rule="evenodd" x="0.5" y="323.5" width="159" height="39" rx="10"></rect>
                    </g>
                    <path d="M55.637,347 L55.637,344.9 L51.619,344.9 L51.619,343.01 L54.671,343.01 L54.671,340.91 L51.619,340.91 L51.619,339.09 L55.441,339.09 L55.441,336.99 L49.169,336.99 L49.169,347 L55.637,347 Z M59.095,347 L59.949,345.376 C60.019,345.25 60.117,345.012 60.117,345.012 L60.145,345.012 C60.145,345.012 60.243,345.25 60.313,345.376 L61.181,347 L63.841,347 L61.573,343.43 L63.883,339.79 L61.153,339.79 L60.369,341.4 C60.285,341.582 60.145,341.876 60.145,341.876 L60.117,341.876 C60.117,341.876 59.991,341.582 59.893,341.4 L59.109,339.79 L56.379,339.79 L58.703,343.43 L56.435,347 L59.095,347 Z M67.355,347 L67.355,343.808 C67.355,343.472 67.383,343.164 67.481,342.884 C67.691,342.254 68.181,341.82 68.923,341.82 C69.455,341.82 69.721,342.1 69.721,342.772 L69.721,347 L72.143,347 L72.143,342.324 C72.143,340.294 71.009,339.622 69.553,339.622 C68.601,339.622 67.761,340.056 67.355,340.77 L67.327,340.77 C67.327,340.77 67.3491235,340.570889 67.3540398,340.270993 L67.355,336.99 L64.933,336.99 L64.933,347 L67.355,347 Z M75.741,347.168 C77.253,347.168 77.785,346.118 77.785,346.118 L77.813,346.118 C77.813,346.118 77.785,346.328 77.785,346.566 L77.785,347 L79.997,347 L79.997,342.562 C79.997,340.728 78.779,339.622 76.749,339.622 C74.971,339.622 73.725,340.56 73.725,340.56 L74.565,342.268 C74.565,342.268 75.601,341.582 76.511,341.582 C77.113,341.582 77.575,341.778 77.575,342.38 L77.575,342.506 L77.477,342.506 C76.357,342.506 73.291,342.744 73.291,344.844 C73.291,346.272 74.397,347.168 75.741,347.168 Z M76.413,345.32 C75.937,345.32 75.727,345.054 75.727,344.718 C75.727,344.116 76.609,343.892 77.379,343.892 L77.603,343.892 L77.603,344.046 C77.603,344.634 77.043,345.32 76.413,345.32 Z M84.141,347.168 C85.107,347.168 86.003,346.692 86.395,345.922 L86.423,345.922 C86.423,345.922 86.395,346.132 86.395,346.37 L86.395,347 L88.719,347 L88.719,339.79 L86.297,339.79 L86.297,342.982 C86.297,344.06 85.807,344.97 84.771,344.97 C84.267,344.97 84.001,344.69 84.001,344.018 L84.001,339.79 L81.579,339.79 L81.579,344.466 C81.579,346.496 82.713,347.168 84.141,347.168 Z M92.835,347.168 C94.697,347.168 95.789,346.118 95.789,344.886 C95.789,342.562 92.415,342.478 92.415,341.932 C92.415,341.68 92.765,341.582 93.129,341.582 C94.137,341.582 94.837,342.17 94.837,342.17 L95.663,340.448 C95.663,340.448 94.809,339.622 93.129,339.622 C91.463,339.622 90.161,340.462 90.161,341.82 C90.161,344.172 93.535,344.242 93.535,344.872 C93.535,345.11 93.185,345.208 92.821,345.208 C91.785,345.208 90.987,344.48 90.987,344.48 L89.951,346.104 C89.951,346.104 91.029,347.168 92.835,347.168 Z M100.843,347.07 C101.235,347.07 101.501,347.028 101.501,347.028 L101.501,344.928 C101.501,344.928 101.375,344.942 101.179,344.942 C100.717,344.942 99.891,344.83 99.891,344.018 L99.891,341.806 L101.403,341.806 L101.403,339.916 L99.891,339.916 L99.891,337.844 L97.539,337.844 L97.539,339.916 L96.545,339.916 L96.545,341.806 L97.469,341.806 L97.469,344.34 C97.469,346.762 99.695,347.07 100.843,347.07 Z M105.309,338.88 L105.309,336.99 L102.943,336.99 L102.943,338.88 L105.309,338.88 Z M105.337,347 L105.337,339.79 L102.915,339.79 L102.915,347 L105.337,347 Z M111.651,347 L114.101,339.79 L111.539,339.79 L110.433,343.626 C110.293,344.102 110.167,344.872 110.167,344.872 L110.139,344.872 C110.139,344.872 110.013,344.088 109.873,343.626 L108.753,339.79 L106.205,339.79 L108.697,347 L111.651,347 Z M117.391,338.88 L117.391,336.99 L115.025,336.99 L115.025,338.88 L117.391,338.88 Z M117.419,347 L117.419,339.79 L114.997,339.79 L114.997,347 L117.419,347 Z M122.949,347.07 C123.341,347.07 123.607,347.028 123.607,347.028 L123.607,344.928 C123.607,344.928 123.481,344.942 123.285,344.942 C122.823,344.942 121.997,344.83 121.997,344.018 L121.997,341.806 L123.509,341.806 L123.509,339.916 L121.997,339.916 L121.997,337.844 L119.645,337.844 L119.645,339.916 L118.651,339.916 L118.651,341.806 L119.575,341.806 L119.575,344.34 C119.575,346.762 121.801,347.07 122.949,347.07 Z M129.067,339.09 L130.719,336.99 L128.325,336.99 L127.191,339.09 L129.067,339.09 Z M128.465,347.168 C130.383,347.168 131.545,346.118 131.545,346.118 L130.649,344.424 C130.649,344.424 129.697,345.152 128.661,345.152 C127.891,345.152 127.163,344.746 126.981,343.864 L131.531,343.864 C131.531,343.864 131.587,343.346 131.587,343.108 C131.587,341.106 130.383,339.622 128.255,339.622 C125.931,339.622 124.503,341.274 124.503,343.388 C124.503,345.306 125.889,347.168 128.465,347.168 Z M129.151,342.478 L127.037,342.478 C127.163,341.946 127.499,341.442 128.199,341.442 C128.773,341.442 129.151,341.932 129.151,342.478 Z" id="Exhaustivité" fill="#FFFFFF" fill-rule="nonzero"></path>
                    <g id="chart-line" transform="translate(27.000000, 336.500000)" fill="#FFFFFF" fill-rule="nonzero">
                        <path d="M13.5625,8.83333333 L1.75,8.83333333 L1.75,0.916666667 C1.75,0.686458333 1.55421875,0.5 1.3125,0.5 L0.4375,0.5 C0.19578125,0.5 0,0.686458333 0,0.916666667 L0,9.66666667 C0,10.1268229 0.391835938,10.5 0.875,10.5 L13.5625,10.5 C13.8042187,10.5 14,10.3135417 14,10.0833333 L14,9.25 C14,9.01979167 13.8042187,8.83333333 13.5625,8.83333333 Z M12.8627589,1.16666667 L9.63445081,1.16666667 C9.04982242,1.16666667 8.75696133,1.85909284 9.17041227,2.26410188 L10.0563786,3.13197839 L8.0501024,5.09755798 L6.04382621,3.13224626 C5.70201822,2.79741735 5.14801582,2.79741735 4.80648128,3.13224626 L2.928178,4.97219804 C2.757274,5.13961249 2.757274,5.41095783 2.928178,5.57837229 L3.54671374,6.18427867 C3.71761774,6.35169312 3.99461893,6.35169312 4.16552293,6.18427867 L5.42501702,4.95023326 L7.43129321,6.91554499 C7.7731012,7.25037389 8.3271036,7.25037389 8.66863814,6.91554499 L11.2937235,4.34405902 L12.1796898,5.21193553 C12.5931408,5.61694457 13.3,5.33006317 13.3,4.75737182 L13.3,1.59524766 C13.3002732,1.35845666 13.1044855,1.16666667 12.8627589,1.16666667 Z" id="Shape"></path>
                    </g>
                    <g id="laptop" transform="translate(268.000000, 415.000000)" fill="#FFFFFF" fill-rule="nonzero">
                        <path d="M16.575,11.375 L10.1346563,11.375 C10.115,11.9166797 9.74392188,12.25 9.265,12.25 L7.65,12.25 C7.15354687,12.25 6.77290625,11.7723047 6.77954688,11.375 L0.425,11.375 C0.19125,11.375 0,11.571875 0,11.8125 L0,12.25 C0,13.2125 0.765,14 1.7,14 L15.3,14 C16.235,14 17,13.2125 17,12.25 L17,11.8125 C17,11.571875 16.80875,11.375 16.575,11.375 Z M15.3,1.3125 C15.3,0.590625 14.72625,0 14.025,0 L2.975,0 C2.27375,0 1.7,0.590625 1.7,1.3125 L1.7,10.5 L15.3,10.5 L15.3,1.3125 Z M13.6,8.75 L3.4,8.75 L3.4,1.75 L13.6,1.75 L13.6,8.75 Z" id="Shape"></path>
                    </g>
                </g>
            </g>
        </g>
    </g>
</svg>