<svg height="33" viewBox="0 0 112 33" width="112" xmlns="http://www.w3.org/2000/svg"><g fill="#122338"><path d="m24.589 28.063a48.267 48.267 0 0 0 -6.166 2.55c-.753.12-1.514.178-2.277.176-.518 0-1.044-.035-1.547-.084a46.411 46.411 0 0 1 12.386-4.852 11.921 11.921 0 0 1 -2.396 2.21zm4.623-5.515c-.246.486-.504.958-.784 1.43a47.765 47.765 0 0 0 -16.155 6.29 14.745 14.745 0 0 1 -2.123-.79c5.513-3.563 12.007-5.986 19.062-6.93zm-20.66 6.093c-.54-.331-1.057-.698-1.547-1.1 6.53-4.4 14.509-7.197 23.175-7.718-.105.389-.21.754-.329 1.12-7.903.887-15.196 3.627-21.298 7.698zm-3.903-3.6c7.49-5.014 16.506-7.775 25.97-7.873a8.96 8.96 0 0 1 -.105 1.063c-9.262.486-17.774 3.458-24.703 8.177a13.18 13.18 0 0 1 -1.163-1.366zm15.581-8.38a47.88 47.88 0 0 0 -8.133 2.55v-7.022l4.063-4.085 4.063 4.085zm-4.063-14.953c7.713 0 14.053 6.113 14.452 13.783a51.7 51.7 0 0 0 -8.896.873v-4.492a.83.83 0 0 0 -.225-.542l-4.812-4.84c-.281-.283-.784-.283-1.058 0l-4.813 4.853a.763.763 0 0 0 -.224.542v8a46.21 46.21 0 0 0 -6.866 3.846 14.484 14.484 0 0 1 -2.053-7.436c.022-8.05 6.516-14.585 14.496-14.585l-.001-.003zm0-1.69c-8.912 0-16.157 7.282-16.157 16.24s7.244 16.24 16.156 16.24c8.911 0 16.155-7.282 16.155-16.24s-7.244-16.24-16.155-16.24z"/><path d="m8.897 9.014a.97.97 0 0 0 .966-.972.97.97 0 0 0 -.966-.971.971.971 0 1 0 0 1.944m29.416 6.335v-6.181a.367.367 0 0 0 -.364-.366h-1.857c-.2 0-.363.164-.365.366v.662a.367.367 0 0 0 .365.366h.714v5.155c0 .803-.329 1.19-1.009 1.19a.98.98 0 0 1 -.175-.014c-.106-.014-.225 0-.295.07a.38.38 0 0 0 -.14.283v.684a.358.358 0 0 0 .281.353c.143.032.288.048.434.05.554-.015 2.41-.205 2.41-2.613m-1.211-7.202h.904a.367.367 0 0 0 .364-.366v-1.014a.367.367 0 0 0 -.364-.366h-.905a.367.367 0 0 0 -.364.366v1.014a.356.356 0 0 0 .364.366m5.178 1.909c.68 0 1.15.424 1.29 1.134h-2.866c.238-.697.813-1.134 1.577-1.134zm2.69 4.204-.364-.612a.405.405 0 0 0 -.259-.177c-.106-.014-.224.014-.294.106 0 0-.624.613-1.563.613-.855 0-1.737-.521-1.912-1.677h4.168a.345.345 0 0 0 .352-.318c0-.035.035-.26.035-.436 0-1.867-1.149-3.106-2.852-3.106-1.912 0-3.285 1.465-3.285 3.493s1.457 3.493 3.475 3.493c1.476 0 2.416-.887 2.452-.922a.375.375 0 0 0 .048-.458v.001zm2.782-4.07h.715v3.93h-.554a.367.367 0 0 0 -.364.367v.662c.002.201.164.362.364.363h2.641a.367.367 0 0 0 .365-.366v-.659a.367.367 0 0 0 -.365-.366h-.56v-1.52c0-.944.4-2.338 1.512-2.338.119 0 .259.014.259.014a.375.375 0 0 0 .294-.084.36.36 0 0 0 .12-.283v-.806a.356.356 0 0 0 -.282-.354 2.256 2.256 0 0 0 -.4-.049c-.609 0-1.148.26-1.562.719-.119-.425-.483-.648-1.023-.648h-1.128a.367.367 0 0 0 -.364.366v.662a.344.344 0 0 0 .33.389m7.751-.133c.68 0 1.148.424 1.289 1.134h-2.873c.247-.697.82-1.134 1.583-1.134zm.189 5.585c1.477 0 2.417-.887 2.452-.923.12-.12.14-.307.049-.45l-.365-.613a.405.405 0 0 0 -.259-.177.298.298 0 0 0 -.294.106s-.645.613-1.563.613c-.854 0-1.737-.521-1.912-1.676h4.168a.362.362 0 0 0 .352-.318c0-.036.035-.26.035-.437 0-1.866-1.149-3.106-2.851-3.106-1.913 0-3.286 1.465-3.286 3.494.02 2.02 1.477 3.486 3.475 3.486zm-1.633-7.578h.834a.338.338 0 0 0 .294-.155l.352-.521.352.521c.064.1.176.158.294.155h.82a.337.337 0 0 0 .316-.19.419.419 0 0 0 -.014-.367l-.98-1.414a.338.338 0 0 0 -.295-.154h-.974a.338.338 0 0 0 -.294.154l-.995 1.41c-.07.105-.084.26-.014.365a.349.349 0 0 0 .309.198m4.773 2.125h.54l1.926 5.085a.348.348 0 0 0 .33.225h.868a.335.335 0 0 0 .33-.225l1.926-5.085h.54a.367.367 0 0 0 .364-.366v-.662a.367.367 0 0 0 -.364-.366h-2.453a.367.367 0 0 0 -.365.366v.662a.367.367 0 0 0 .365.366h.329l-1.114 2.972-1.114-2.972h.329a.367.367 0 0 0 .364-.366v-.662a.367.367 0 0 0 -.363-.366h-2.451a.367.367 0 0 0 -.364.366v.662c.014.198.189.367.378.367m9.976-.135c.68 0 1.148.424 1.289 1.134h-2.873c.247-.697.834-1.134 1.583-1.134zm2.704 4.204-.365-.612a.405.405 0 0 0 -.259-.177c-.105-.014-.224.014-.294.106 0 0-.645.613-1.563.613-.854 0-1.737-.521-1.912-1.677h4.169a.362.362 0 0 0 .351-.318c0-.035.035-.26.035-.436 0-1.867-1.148-3.106-2.851-3.106-1.913 0-3.286 1.465-3.286 3.493s1.457 3.493 3.475 3.493c1.477 0 2.417-.887 2.452-.922.106-.127.14-.318.05-.458zm-32.711 10.1c-.917 0-1.512-.803-1.512-2.043 0-1.225.624-2.042 1.563-2.042 1.044 0 1.512 1.028 1.512 2.042 0 1.268-.575 2.043-1.563 2.043zm3.63-.092h-.554v-7.317a.367.367 0 0 0 -.364-.366h-1.857a.367.367 0 0 0 -.364.366v.662a.367.367 0 0 0 .364.366h.714v1.36a2.473 2.473 0 0 0 -1.562-.522c-1.822 0-3.04 1.395-3.04 3.494 0 2.077 1.183 3.493 2.935 3.493.855 0 1.422-.318 1.807-.662.154.33.484.52.974.52h.974a.367.367 0 0 0 .364-.366v-.663c-.042-.212-.203-.367-.392-.367v.002zm1.997-7.789h-.855a.355.355 0 0 0 -.352.283l-.554 2.408a.428.428 0 0 0 .07.319.376.376 0 0 0 .282.141h.645a.387.387 0 0 0 .351-.247l.764-2.41a.365.365 0 0 0 -.049-.317c-.09-.12-.196-.177-.301-.177m7.992 7.81h-.575v-4.959a.367.367 0 0 0 -.364-.366h-1.857a.367.367 0 0 0 -.364.366v.662a.367.367 0 0 0 .364.367h.715v1.816c0 1.064-.68 2.162-1.822 2.162-.714 0-.938-.33-.938-1.414v-3.599a.367.367 0 0 0 -.365-.366h-1.854a.367.367 0 0 0 -.365.366v.662a.367.367 0 0 0 .365.366h.714v2.783c0 1.795.75 2.669 2.312 2.669.94 0 1.597-.39 2.053-.824.12.436.47.683 1.023.683h1.009a.367.367 0 0 0 .364-.366v-.648c-.049-.204-.203-.36-.413-.36m8.132-.021h-.645v-2.774c0-1.796-.764-2.669-2.326-2.669a2.967 2.967 0 0 0 -2.087.838c-.12-.436-.484-.697-1.044-.697h-1.129a.367.367 0 0 0 -.364.366v.662a.367.367 0 0 0 .364.367h.715v3.93h-.645a.367.367 0 0 0 -.364.366v.662a.367.367 0 0 0 .364.366h2.817a.367.367 0 0 0 .364-.366v-.662a.367.367 0 0 0 -.364-.367h-.645v-1.852c0-1.19.834-2.113 1.892-2.113.714 0 .939.354.939 1.414v3.578a.367.367 0 0 0 .364.366h1.786a.367.367 0 0 0 .365-.366v-.662c.007-.232-.154-.389-.358-.389m2.138-2.914c.246-.718.833-1.134 1.582-1.134.68 0 1.149.424 1.29 1.134zm1.61-2.535c-1.912 0-3.285 1.465-3.285 3.493 0 2.029 1.457 3.493 3.475 3.493 1.477 0 2.417-.887 2.452-.922.12-.12.14-.308.049-.45l-.364-.614a.405.405 0 0 0 -.26-.176c-.105-.014-.224.014-.294.106 0 0-.623.612-1.562.612-.855 0-1.738-.52-1.913-1.676h4.169a.345.345 0 0 0 .352-.318c0-.035.035-.26.035-.437 0-1.852-1.149-3.112-2.852-3.112h-.001zm16.283 5.451h-.645v-2.774c0-1.782-.785-2.669-2.326-2.669-.882 0-1.632.472-2.102 1.05-.351-.698-.987-1.05-1.926-1.05-.715 0-1.388.353-1.878.824-.119-.437-.483-.683-1.044-.683h-1.128a.367.367 0 0 0 -.364.366v.662a.367.367 0 0 0 .364.366h.715v3.93h-.645a.367.367 0 0 0 -.364.366v.662a.367.367 0 0 0 .364.367h2.816a.367.367 0 0 0 .365-.367v-.662a.367.367 0 0 0 -.365-.366h-.644v-1.817c0-1.05.68-2.183 1.667-2.183.68 0 .883.33.883 1.414v3.601a.367.367 0 0 0 .364.366h1.808a.367.367 0 0 0 .364-.366v-.662a.367.367 0 0 0 -.364-.366h-.644v-1.833c0-1.05.658-2.148 1.632-2.148.575 0 .918.225.918 1.414v3.599a.367.367 0 0 0 .364.366h1.808a.367.367 0 0 0 .364-.366v-.663c.007-.225-.147-.38-.357-.38m2.816.143c-.624 0-.918-.424-.918-.838 0-.838 1.457-.98 2.326-.98h.105c-.042.895-.61 1.818-1.513 1.818zm3.573-.142h-.553v-2.843c0-1.676-.904-2.599-2.537-2.599-1.457 0-2.346.732-2.382.768a.353.353 0 0 0 -.07.472l.387.612a.33.33 0 0 0 .246.155c.1.015.2-.01.281-.07 0 0 .624-.507 1.493-.507.714 0 1.044.318 1.057 1.028h-.014c-3.25 0-3.944 1.296-3.944 2.373 0 1.465 1.22 2.148 2.347 2.148.82 0 1.371-.33 1.751-.683.154.354.484.542.988.542h.972a.367.367 0 0 0 .364-.366v-.663a.38.38 0 0 0 -.387-.367l.001.001zm2.088-5.957h.903a.367.367 0 0 0 .365-.366v-1.007a.367.367 0 0 0 -.365-.367h-.903a.367.367 0 0 0 -.365.367v1.015a.375.375 0 0 0 .365.359m1.856 5.957h-.644v-4.944a.367.367 0 0 0 -.365-.366h-1.856a.367.367 0 0 0 -.365.366v.662a.367.367 0 0 0 .365.366h.714v3.93h-.645a.367.367 0 0 0 -.364.367v.662a.367.367 0 0 0 .364.366h2.817a.367.367 0 0 0 .364-.366v-.662c-.021-.226-.176-.38-.387-.38m3.582-2.655c-.764-.284-1.268-.487-1.268-.874 0-.402.554-.507.883-.507.518 0 .855.212.855.354v.436a.367.367 0 0 0 .364.366h.729a.367.367 0 0 0 .364-.366v-.683c0-.993-1.198-1.52-2.326-1.52-1.163 0-2.417.612-2.417 1.958 0 1.345 1.303 1.83 2.088 2.113l.153.045c.834.318 1.22.486 1.22.86 0 .4-.54.577-1.045.577-.553 0-1.184-.212-1.184-.507v-.424a.367.367 0 0 0 -.362-.365h-.729a.367.367 0 0 0 -.364.366v.578c0 1.17 1.303 1.782 2.606 1.782 1.562 0 2.606-.824 2.606-2.042 0-1.36-1.303-1.832-2.172-2.149m6.031 2.748c-1.093 0-1.947-.909-1.947-2.078 0-1.134.854-2.007 1.947-2.007s1.962.887 1.962 2.007c-.021 1.17-.868 2.078-1.962 2.078zm0-5.543c-1.961 0-3.489 1.52-3.489 3.458 0 1.972 1.528 3.528 3.49 3.528 1.961 0 3.51-1.555 3.51-3.528-.022-1.937-1.548-3.458-3.51-3.458zm11.098 5.451h-.645v-2.774c0-1.796-.764-2.669-2.326-2.669a2.967 2.967 0 0 0 -2.087.838c-.12-.436-.484-.697-1.044-.697h-1.129a.367.367 0 0 0 -.364.365v.662a.367.367 0 0 0 .364.367h.715v3.93h-.645a.367.367 0 0 0 -.364.366v.662a.367.367 0 0 0 .364.366h2.817a.367.367 0 0 0 .364-.366v-.662a.367.367 0 0 0 -.364-.367h-.645v-1.852c0-1.19.834-2.113 1.892-2.113.714 0 .939.354.939 1.414v3.578a.367.367 0 0 0 .364.366h1.786a.367.367 0 0 0 .365-.366v-.662c.007-.232-.161-.39-.358-.39"/></g></svg>