<svg height="42" viewBox="0 0 143 42" width="143" xmlns="http://www.w3.org/2000/svg"><g fill="#fff"><path d="m31.394 35.716a61.737 61.737 0 0 0 -7.872 3.246c-.961.152-1.933.227-2.907.225a20.56 20.56 0 0 1 -1.975-.108 59.37 59.37 0 0 1 15.815-6.176 15.203 15.203 0 0 1 -3.06 2.813zm5.904-7.018a30.57 30.57 0 0 1 -1.002 1.82 61.1 61.1 0 0 0 -20.627 8.004c-.927-.265-1.834-.6-2.71-1.004 7.04-4.535 15.331-7.619 24.34-8.82zm-26.378 7.754c-.689-.421-1.349-.888-1.975-1.399 8.336-5.602 18.525-9.16 29.59-9.824-.135.495-.27.96-.42 1.426-10.09 1.129-19.402 4.616-27.193 9.797zm-4.983-4.58c9.563-6.383 21.074-9.896 33.158-10.022-.017.453-.062.905-.134 1.353-11.825.619-22.694 4.401-31.54 10.407a16.788 16.788 0 0 1 -1.485-1.739zm19.893-10.667a61.275 61.275 0 0 0 -10.384 3.245v-8.937l5.188-5.199 5.188 5.2.009 5.69zm-5.189-19.031c9.849 0 17.944 7.78 18.453 17.541a66.213 66.213 0 0 0 -11.359 1.111v-5.716a1.053 1.053 0 0 0 -.286-.69l-6.144-6.158c-.36-.36-1.002-.36-1.351 0l-6.146 6.175a.97.97 0 0 0 -.286.69v10.183a59.055 59.055 0 0 0 -8.766 4.894 18.39 18.39 0 0 1 -2.62-9.463c.026-10.246 8.318-18.563 18.507-18.563zm0-2.152c-11.378 0-20.627 9.268-20.627 20.67 0 11.401 9.25 20.67 20.627 20.67 11.378 0 20.627-9.269 20.627-20.67 0-11.402-9.248-20.67-20.627-20.67z"/><path d="m11.36 11.473c.68 0 1.233-.554 1.233-1.237s-.552-1.237-1.234-1.237c-.681 0-1.234.554-1.234 1.237a1.238 1.238 0 0 0 1.234 1.237m37.559 8.064v-7.87a.468.468 0 0 0 -.465-.464h-2.371a.468.468 0 0 0 -.466.465v.842a.468.468 0 0 0 .465.467h.913v6.56c0 1.022-.42 1.515-1.288 1.515-.076.001-.15-.005-.225-.018-.135-.018-.286 0-.376.09a.483.483 0 0 0 -.18.36v.87a.456.456 0 0 0 .36.45c.182.04.368.061.554.062.707-.018 3.078-.26 3.078-3.325m-1.547-9.164h1.154a.468.468 0 0 0 .465-.466v-1.291a.468.468 0 0 0 -.465-.467h-1.154a.468.468 0 0 0 -.465.466v1.29a.453.453 0 0 0 .465.467m6.61 2.43c.868 0 1.467.54 1.646 1.443h-3.658c.304-.887 1.038-1.443 2.013-1.443zm3.435 5.351-.465-.78a.518.518 0 0 0 -.331-.224c-.135-.018-.286.018-.376.135 0 0-.796.78-1.995.78-1.091 0-2.218-.664-2.442-2.134h5.323a.44.44 0 0 0 .449-.405c0-.045.044-.332.044-.556 0-2.375-1.466-3.953-3.64-3.953-2.442 0-4.196 1.865-4.196 4.446 0 2.582 1.861 4.446 4.437 4.446 1.886 0 3.086-1.129 3.131-1.174a.476.476 0 0 0 .062-.583v.002zm3.551-5.18h.913v5.001h-.707a.468.468 0 0 0 -.465.468v.843c.003.255.21.46.465.462h3.372a.468.468 0 0 0 .466-.466v-.839a.468.468 0 0 0 -.466-.466h-.715v-1.935c0-1.2.51-2.975 1.93-2.975.153 0 .331.018.331.018a.48.48 0 0 0 .376-.108.457.457 0 0 0 .152-.36v-1.024a.453.453 0 0 0 -.359-.45 2.889 2.889 0 0 0 -.51-.063c-.778 0-1.467.332-1.995.915-.152-.54-.617-.825-1.306-.825h-1.44a.468.468 0 0 0 -.465.466v.843a.437.437 0 0 0 .42.495m9.897-.171c.868 0 1.467.54 1.646 1.443h-3.668c.315-.887 1.047-1.443 2.02-1.443zm.241 7.109c1.886 0 3.086-1.13 3.131-1.175a.46.46 0 0 0 .062-.573l-.465-.78a.518.518 0 0 0 -.33-.225.382.382 0 0 0 -.376.135s-.823.78-1.995.78c-1.092 0-2.219-.664-2.442-2.134h5.322a.461.461 0 0 0 .449-.405c0-.045.045-.331.045-.555 0-2.376-1.467-3.953-3.64-3.953-2.443 0-4.196 1.864-4.196 4.446.027 2.572 1.886 4.437 4.437 4.437zm-2.084-9.645h1.065a.433.433 0 0 0 .375-.198l.45-.663.448.663a.433.433 0 0 0 .376.197h1.047a.43.43 0 0 0 .404-.242.531.531 0 0 0 -.018-.466l-1.252-1.8a.433.433 0 0 0 -.376-.196h-1.243a.433.433 0 0 0 -.376.197l-1.27 1.793c-.09.135-.108.331-.018.466a.445.445 0 0 0 .394.25m6.094 2.706h.69l2.46 6.471c.065.175.233.29.42.287h1.108a.428.428 0 0 0 .42-.287l2.46-6.471h.69a.468.468 0 0 0 .464-.467v-.842a.468.468 0 0 0 -.464-.465h-3.132a.468.468 0 0 0 -.465.466v.842c.001.257.209.464.465.466h.42l-1.422 3.782-1.423-3.782h.42a.468.468 0 0 0 .466-.467v-.842a.468.468 0 0 0 -.464-.465h-3.13a.468.468 0 0 0 -.466.466v.842a.51.51 0 0 0 .483.466m12.738-.171c.868 0 1.467.54 1.646 1.443h-3.667c.314-.887 1.064-1.443 2.02-1.443zm3.453 5.351-.466-.78a.518.518 0 0 0 -.33-.224c-.135-.018-.287.018-.376.135 0 0-.823.78-1.995.78-1.091 0-2.218-.664-2.442-2.134h5.323a.461.461 0 0 0 .449-.405c0-.045.045-.332.045-.556 0-2.375-1.467-3.953-3.641-3.953-2.442 0-4.196 1.865-4.196 4.446 0 2.582 1.861 4.446 4.437 4.446 1.886 0 3.086-1.129 3.131-1.174.135-.162.18-.405.062-.583zm-41.764 12.853c-1.172 0-1.931-1.02-1.931-2.599 0-1.56.796-2.6 1.995-2.6 1.333 0 1.93 1.31 1.93 2.6 0 1.614-.733 2.6-1.994 2.6zm4.633-.116h-.707v-9.313a.468.468 0 0 0 -.465-.466h-2.37a.468.468 0 0 0 -.466.466v.843a.468.468 0 0 0 .466.466h.912v1.73c-.465-.36-1.11-.663-1.995-.663-2.326 0-3.882 1.775-3.882 4.446 0 2.644 1.511 4.446 3.748 4.446 1.091 0 1.816-.405 2.308-.843.196.421.617.663 1.243.663h1.243a.468.468 0 0 0 .465-.466v-.845c-.054-.27-.26-.466-.5-.466zm2.55-9.914h-1.092a.453.453 0 0 0 -.449.36l-.706 3.066a.544.544 0 0 0 .09.405c.087.11.218.176.359.18h.823a.494.494 0 0 0 .449-.315l.975-3.065a.463.463 0 0 0 -.063-.405c-.116-.153-.25-.225-.384-.225m10.204 9.939h-.734v-6.31a.468.468 0 0 0 -.465-.466h-2.37a.468.468 0 0 0 -.466.466v.842a.468.468 0 0 0 .466.466h.912v2.313c0 1.353-.868 2.752-2.326 2.752-.912 0-1.199-.422-1.199-1.8v-4.581a.468.468 0 0 0 -.465-.466h-2.368a.468.468 0 0 0 -.465.466v.843a.468.468 0 0 0 .465.466h.913v3.54c0 2.286.957 3.398 2.952 3.398a3.68 3.68 0 0 0 2.62-1.049c.153.556.6.87 1.307.87h1.288a.468.468 0 0 0 .465-.466v-.825c-.063-.26-.26-.457-.528-.457m10.383-.028h-.823v-3.531c0-2.286-.975-3.398-2.97-3.398a3.795 3.795 0 0 0 -2.665 1.067c-.152-.555-.618-.887-1.333-.887h-1.44a.468.468 0 0 0 -.466.466v.843a.468.468 0 0 0 .465.466h.914v5.001h-.823a.468.468 0 0 0 -.465.466v.843a.468.468 0 0 0 .465.466h3.596a.468.468 0 0 0 .465-.466v-.843a.468.468 0 0 0 -.465-.466h-.823v-2.357c0-1.515 1.064-2.69 2.415-2.69.912 0 1.198.45 1.198 1.8v4.554a.468.468 0 0 0 .466.466h2.28a.468.468 0 0 0 .466-.466v-.843c.009-.295-.197-.495-.457-.495m2.728-3.707c.315-.914 1.065-1.443 2.02-1.443.869 0 1.468.54 1.647 1.443zm2.058-3.227c-2.442 0-4.196 1.865-4.196 4.446 0 2.582 1.86 4.446 4.437 4.446 1.886 0 3.086-1.129 3.13-1.174a.46.46 0 0 0 .063-.574l-.465-.78a.518.518 0 0 0 -.33-.224c-.135-.018-.287.018-.377.135 0 0-.796.78-1.994.78-1.092 0-2.219-.664-2.442-2.134h5.322a.44.44 0 0 0 .45-.405c0-.045.044-.331.044-.556 0-2.357-1.467-3.961-3.64-3.961zm20.788 6.938h-.823v-3.531c0-2.268-1.002-3.398-2.97-3.398-1.127 0-2.084.601-2.683 1.336-.45-.887-1.262-1.336-2.46-1.336-.913 0-1.772.45-2.397 1.05-.153-.556-.618-.87-1.333-.87h-1.44a.468.468 0 0 0 -.466.466v.842a.468.468 0 0 0 .465.466h.913v5.002h-.823a.468.468 0 0 0 -.466.466v.843a.468.468 0 0 0 .466.466h3.595a.468.468 0 0 0 .466-.466v-.843a.468.468 0 0 0 -.466-.466h-.822v-2.313c0-1.335.867-2.778 2.129-2.778.867 0 1.127.42 1.127 1.8v4.583a.468.468 0 0 0 .465.466h2.307a.468.468 0 0 0 .466-.466v-.843a.468.468 0 0 0 -.466-.466h-.822v-2.33c0-1.336.84-2.734 2.084-2.734.734 0 1.172.287 1.172 1.8v4.58a.468.468 0 0 0 .465.466h2.308a.468.468 0 0 0 .465-.466v-.843c.009-.287-.188-.484-.456-.484m3.596.18c-.796 0-1.172-.54-1.172-1.066 0-1.067 1.86-1.246 2.97-1.246h.134c-.054 1.138-.778 2.312-1.932 2.312zm4.562-.18h-.707v-3.62c0-2.133-1.154-3.308-3.238-3.308-1.86 0-2.997.933-3.041.978a.448.448 0 0 0 -.09.6l.494.78c.068.11.184.183.314.197a.481.481 0 0 0 .36-.09s.795-.645 1.905-.645c.912 0 1.333.405 1.35 1.309h-.018c-4.15 0-5.036 1.649-5.036 3.02 0 1.865 1.557 2.734 2.996 2.734a3.168 3.168 0 0 0 2.237-.87c.196.45.617.69 1.261.69h1.24a.468.468 0 0 0 .466-.465v-.845a.485.485 0 0 0 -.494-.466v.001zm2.665-7.582h1.154a.468.468 0 0 0 .465-.466v-1.282a.468.468 0 0 0 -.465-.466h-1.154a.468.468 0 0 0 -.465.466v1.292c.011.251.215.45.465.457m2.37 7.582h-.823v-6.292a.468.468 0 0 0 -.465-.466h-2.37a.468.468 0 0 0 -.465.466v.843a.468.468 0 0 0 .465.466h.912v5.001h-.823a.468.468 0 0 0 -.465.466v.843a.468.468 0 0 0 .465.466h3.596a.468.468 0 0 0 .465-.466v-.843c-.027-.287-.224-.484-.494-.484m4.574-3.379c-.976-.36-1.62-.618-1.62-1.111 0-.511.707-.645 1.127-.645.662 0 1.092.27 1.092.45v.555a.468.468 0 0 0 .465.466h.93a.468.468 0 0 0 .465-.466v-.87c0-1.263-1.53-1.934-2.97-1.934-1.484 0-3.085.78-3.085 2.492s1.664 2.33 2.666 2.69l.195.057c1.065.405 1.557.618 1.557 1.093 0 .512-.689.736-1.333.736-.707 0-1.512-.27-1.512-.646v-.54a.468.468 0 0 0 -.463-.463h-.93a.468.468 0 0 0 -.465.466v.735c0 1.488 1.664 2.268 3.327 2.268 1.995 0 3.328-1.049 3.328-2.6 0-1.73-1.664-2.33-2.773-2.734m7.7 3.496c-1.395 0-2.487-1.155-2.487-2.643 0-1.443 1.092-2.555 2.487-2.555 1.396 0 2.505 1.13 2.505 2.555-.027 1.488-1.108 2.644-2.505 2.644zm0-7.053c-2.504 0-4.454 1.934-4.454 4.4 0 2.51 1.95 4.491 4.454 4.491 2.505 0 4.482-1.98 4.482-4.49-.027-2.465-1.976-4.401-4.482-4.401zm14.169 6.937h-.823v-3.531c0-2.286-.975-3.398-2.97-3.398a3.795 3.795 0 0 0 -2.665 1.067c-.152-.555-.617-.887-1.333-.887h-1.44a.468.468 0 0 0 -.465.465v.842a.468.468 0 0 0 .465.466h.912v5.002h-.823a.468.468 0 0 0 -.465.466v.843a.468.468 0 0 0 .465.466h3.596a.468.468 0 0 0 .465-.466v-.843a.468.468 0 0 0 -.465-.466h-.823v-2.357c0-1.515 1.065-2.69 2.415-2.69.912 0 1.199.45 1.199 1.8v4.554a.468.468 0 0 0 .465.466h2.28a.468.468 0 0 0 .466-.466v-.843c.009-.296-.206-.495-.456-.495"/></g></svg>